<svg width="5165" height="1784" viewBox="0 0 5165 1784" fill="none" xmlns="http://www.w3.org/2000/svg">
<path d="M198.43 1603.76H314.313V1076.94L1046.2 1322.31V1603.76H1161.53V1361.25L1359.96 1428.52V1672.38C1359.96 1720.74 1320.91 1760 1272.81 1760H934.923C886.824 1760 847.773 1720.74 847.773 1672.38V1455.89L512.743 1367.24V1672.38C512.743 1720.74 473.692 1760 425.593 1760H87.1505C39.051 1760 0 1720.74 0 1672.38V643.961L0.238106 644.041L0.873097 644.28L30.9552 654.334L649.263 861.328L1158.59 1031.93L1161.53 1032.89V156.242H1045.89V877.766L0.238106 527.697L0 527.617V87.6169C0 39.26 39.051 0 87.1505 0H425.117C473.295 0 512.267 39.26 512.267 87.6169V365.629L313.837 303.547V156.242H198.43V382.786L847.455 590.018V87.6169C847.455 39.26 886.427 0 934.526 0H1272.81C1320.91 0 1359.96 39.26 1359.96 87.6169V1311.46L812.294 1127.37L198.43 921.255V1603.76Z" fill="#151F36"/>
<path d="M1359.96 1428.52V1672.38C1359.96 1720.74 1320.91 1760 1272.81 1760H934.923C886.824 1760 847.773 1720.74 847.773 1672.38V1455.89L512.743 1367.24V1672.38C512.743 1720.74 473.692 1760 425.593 1760H87.1505C39.051 1760 0 1720.74 0 1672.38V857.577L198.43 921.494V1603.76H314.313V1076.94L1046.2 1322.31V1603.76H1161.53V1361.26L1359.96 1428.52Z" fill="#151F36"/>
<g opacity="0.7">
<path opacity="0.6" d="M483.654 1359.34L512.783 1367.08V1672.38C512.783 1704.62 495.401 1732.87 469.525 1748.03C478.494 1734.31 483.654 1717.95 483.654 1700.31V1359.34Z" fill="white"/>
<path d="M1360 87.6169V1311.46L1330.24 1301.49V117.541C1330.24 69.1839 1291.18 29.9238 1243.08 29.9238H904.801C888.45 29.9238 873.132 34.4722 860.035 42.3721C875.275 16.9967 902.896 0 934.566 0H1272.85C1320.95 0 1360 39.26 1360 87.6169Z" fill="white"/>
<path d="M512.307 87.6169V365.629L483.257 356.532V115.546C483.257 67.1889 444.206 27.9289 396.106 27.9289H58.0607C42.0275 27.9289 27.0262 32.3177 14.168 39.8984C29.6455 15.8796 56.632 0 87.1902 0H425.156C473.335 0 512.307 39.26 512.307 87.6169Z" fill="white"/>
<path d="M847.495 590.018V626.804L169.34 410.714V155.971H198.47V382.785L845.352 589.3L847.495 590.018Z" fill="white"/>
<path d="M1161.73 1033.13V1069.92L0.0400391 681.625V643.961L0.278146 644.041V644.52L0.913136 644.28L30.9951 654.335L649.303 861.328L1158.63 1031.93L1161.73 1033.13Z" fill="white"/>
<path opacity="0.6" d="M1160.14 1603.76V1631.69H1017.11V1350.24L314.353 1105.35V1076.94L1046.24 1322.31V1603.76H1160.14Z" fill="white"/>
<path d="M1045.92 877.766L1016.79 868.031V155.676H1045.92V877.766Z" fill="white"/>
<path opacity="0.6" d="M198.47 1603.76H312.924V1631.69H169.34V911.839L198.47 921.494V1603.76Z" fill="white"/>
<path opacity="0.6" d="M1360 1428.52V1672.38C1360 1704.62 1342.62 1732.79 1316.82 1747.95C1325.71 1734.23 1330.87 1717.87 1330.87 1700.31V1449.22L1161.57 1389.74V1361.25L1360 1428.52Z" fill="white"/>
</g>
<path d="M314.353 1105.35V1603.76H312.924V1104.87L314.353 1105.35Z" fill="white"/>
<path d="M1161.57 1389.74V1603.76H1160.14V1389.18L1161.57 1389.74Z" fill="white"/>
<mask id="path-14-outside-1_4015_46" maskUnits="userSpaceOnUse" x="1509" y="548" width="3286" height="1185" fill="black">
<rect fill="white" x="1509" y="548" width="3286" height="1185"/>
<path d="M1515.46 549.852C1635.04 554.122 1727.93 556.258 1794.13 556.258C1860.33 556.258 1953.22 554.122 2072.8 549.852C2074.94 558.393 2076.01 564.266 2076.01 567.469C2076.01 573.341 2074.94 580.014 2072.8 587.488C2048.25 589.624 2028.23 592.026 2012.75 594.695C1997.8 596.831 1979.11 600.568 1956.69 605.906C1934.8 611.245 1917.99 618.986 1906.24 629.129C1894.5 638.738 1888.36 650.483 1887.82 664.363C1880.88 845.874 1877.41 1014.84 1877.41 1171.26C1877.41 1285.5 1880.35 1434.18 1886.22 1617.29C1886.76 1631.17 1892.9 1643.18 1904.64 1653.33C1916.39 1662.94 1933.2 1670.41 1955.09 1675.75C1977.51 1681.09 1996.2 1685.09 2011.14 1687.76C2026.63 1689.9 2046.65 1692.03 2071.2 1694.17C2073.34 1700.57 2074.41 1707.78 2074.41 1715.79C2074.41 1720.06 2073.34 1725.4 2071.2 1731.8C1980.45 1728.6 1887.56 1727 1792.53 1727C1696.44 1727 1603.55 1728.6 1513.86 1731.8C1511.72 1725.4 1510.66 1720.06 1510.66 1715.79C1510.66 1706.71 1511.72 1699.51 1513.86 1694.17C1529.88 1692.57 1542.69 1691.23 1552.3 1690.16C1561.91 1689.1 1574.99 1687.23 1591.54 1684.56C1608.62 1681.89 1622.23 1678.95 1632.38 1675.75C1643.05 1672.01 1654 1667.48 1665.21 1662.14C1676.42 1656.8 1684.69 1650.39 1690.03 1642.92C1695.9 1635.44 1698.84 1626.9 1698.84 1617.29C1705.25 1450.2 1708.45 1281.77 1708.45 1112C1708.45 939.031 1705.78 789.819 1700.44 664.363C1699.91 650.483 1693.77 638.738 1682.02 629.129C1670.28 618.986 1653.2 611.245 1630.77 605.906C1608.89 600.568 1590.2 596.831 1574.72 594.695C1559.77 592.026 1540.02 589.624 1515.46 587.488C1513.33 577.879 1512.26 571.206 1512.26 567.469C1512.26 562.13 1513.33 556.258 1515.46 549.852ZM2260.19 549.852C2318.38 551.987 2390.98 553.589 2478 554.656C2565.02 555.724 2667.25 556.258 2784.7 556.258C2902.15 556.258 3004.38 555.724 3091.4 554.656C3178.95 553.589 3252.09 551.987 3310.81 549.852C3314.02 572.807 3318.02 594.962 3322.82 616.316C3327.63 637.137 3335.64 660.359 3346.85 685.984L3370.87 740.438L3429.33 854.148C3425.59 862.69 3416.25 869.897 3401.3 875.77C3383.15 842.137 3360.99 810.105 3334.84 779.676C3308.68 749.246 3275.31 721.753 3234.74 697.195C3194.7 672.638 3145.58 652.085 3087.39 635.535C3029.74 618.986 2960.07 607.775 2878.39 601.902C2875.72 668.634 2873.59 744.174 2871.98 828.523C2870.92 912.339 2870.38 1005.76 2870.38 1108.8C2870.38 1212.36 2870.92 1306.32 2871.98 1390.67C2873.59 1475.02 2875.72 1550.56 2878.39 1617.29C2878.92 1630.11 2884 1641.05 2893.61 1650.12C2903.21 1658.67 2916.29 1665.87 2932.84 1671.75C2949.93 1677.62 2969.41 1682.42 2991.3 1686.16C3013.72 1689.36 3037.75 1692.03 3063.37 1694.17C3065.51 1703.24 3066.57 1710.45 3066.57 1715.79C3066.57 1720.59 3065.51 1725.93 3063.37 1731.8C2973.68 1728.6 2880.79 1727 2784.7 1727C2689.14 1727 2596.25 1728.6 2506.03 1731.8C2503.89 1725.93 2502.82 1720.59 2502.82 1715.79C2502.82 1710.45 2503.89 1703.24 2506.03 1694.17L2544.46 1690.16C2558.35 1688.56 2573.83 1686.43 2590.91 1683.76C2607.99 1680.55 2623.74 1676.28 2638.16 1670.95C2653.1 1665.61 2665.65 1658.93 2675.79 1650.93C2685.94 1642.92 2691.01 1633.04 2691.01 1621.3V1617.29C2693.68 1519.6 2695.81 1428.58 2697.41 1344.23C2699.02 1259.88 2699.82 1181.4 2699.82 1108.8C2699.82 1036.73 2699.02 958.784 2697.41 874.969C2695.81 790.62 2693.68 699.598 2691.01 601.902C2614.13 606.173 2547.13 616.583 2490.01 633.133C2433.42 649.148 2384.31 669.435 2342.67 693.992C2301.03 718.016 2266.33 745.776 2238.57 777.273C2210.81 808.237 2187.85 841.069 2169.7 875.77C2154.75 869.897 2145.41 862.69 2141.67 854.148L2177.71 786.082L2194.52 751.648C2201.46 737.234 2208.4 722.553 2215.34 707.605C2222.28 692.658 2228.69 677.176 2234.56 661.16C2240.97 644.611 2246.31 627.26 2250.58 609.109C2254.85 590.424 2258.05 570.672 2260.19 549.852ZM3499.8 549.852C3619.38 554.122 3712.27 556.258 3778.47 556.258C3844.67 556.258 3937.56 554.122 4057.14 549.852C4059.28 558.393 4060.34 564.266 4060.34 567.469C4060.34 571.206 4059.28 577.879 4057.14 587.488C4032.58 589.624 4012.56 592.026 3997.08 594.695C3982.13 596.831 3963.45 600.568 3941.03 605.906C3919.14 611.245 3902.32 618.986 3890.58 629.129C3878.83 638.738 3872.69 650.483 3872.16 664.363C3865.22 823.986 3861.75 972.664 3861.75 1110.4C3921.01 1112.53 4010.7 1113.6 4130.81 1113.6C4229.04 1113.6 4327.54 1112 4426.3 1108.8C4424.17 910.203 4421.5 762.059 4418.29 664.363C4417.76 650.483 4411.62 638.738 4399.88 629.129C4388.13 618.986 4371.05 611.245 4348.62 605.906C4326.2 600.568 4307.25 596.831 4291.77 594.695C4276.82 592.026 4257.07 589.624 4232.51 587.488C4230.38 577.879 4229.31 571.206 4229.31 567.469C4229.31 564.266 4230.38 558.393 4232.51 549.852C4353.16 554.122 4446.05 556.258 4511.18 556.258C4576.85 556.258 4670.01 554.122 4790.66 549.852C4792.79 558.393 4793.86 564.266 4793.86 567.469C4793.86 571.206 4792.79 577.879 4790.66 587.488C4766.1 589.624 4746.08 592.026 4730.6 594.695C4715.65 596.831 4696.96 600.568 4674.54 605.906C4652.12 611.245 4635.04 618.986 4623.29 629.129C4611.55 638.738 4605.41 650.483 4604.88 664.363C4599.54 797.293 4596.87 956.382 4596.87 1141.63C4596.87 1325.81 4599.54 1484.36 4604.88 1617.29C4605.41 1631.17 4611.55 1643.18 4623.29 1653.33C4635.04 1662.94 4652.12 1670.41 4674.54 1675.75C4696.96 1681.09 4715.65 1685.09 4730.6 1687.76C4746.08 1689.9 4766.1 1692.03 4790.66 1694.17C4792.79 1702.71 4793.86 1709.92 4793.86 1715.79C4793.86 1720.06 4792.79 1725.4 4790.66 1731.8C4699.9 1728.6 4606.74 1727 4511.18 1727C4415.62 1727 4322.73 1728.6 4232.51 1731.8C4230.38 1725.4 4229.31 1720.06 4229.31 1715.79C4229.31 1706.71 4230.38 1699.51 4232.51 1694.17C4257.07 1692.03 4277.09 1689.9 4292.57 1687.76C4308.05 1685.09 4327 1681.09 4349.43 1675.75C4371.85 1670.41 4388.93 1662.94 4400.68 1653.33C4412.42 1643.18 4418.29 1631.17 4418.29 1617.29C4422.56 1426.71 4425.23 1282.3 4426.3 1184.07C4327.54 1180.87 4229.04 1179.27 4130.81 1179.27C4069.95 1179.27 3980.27 1180.33 3861.75 1182.47C3861.75 1296.18 3864.69 1441.12 3870.56 1617.29C3871.09 1631.17 3877.23 1643.18 3888.98 1653.33C3900.72 1662.94 3917.54 1670.41 3939.43 1675.75C3961.85 1681.09 3980.53 1685.09 3995.48 1687.76C4010.96 1689.9 4030.98 1692.03 4055.54 1694.17C4057.67 1704.85 4058.74 1712.05 4058.74 1715.79C4058.74 1720.06 4057.67 1725.4 4055.54 1731.8C3964.78 1728.6 3871.89 1727 3776.87 1727C3680.77 1727 3587.88 1728.6 3498.2 1731.8C3496.06 1725.4 3494.99 1720.06 3494.99 1715.79C3494.99 1706.71 3496.06 1699.51 3498.2 1694.17C3522.75 1692.03 3542.51 1689.9 3557.45 1687.76C3572.93 1685.09 3591.62 1681.09 3613.51 1675.75C3635.93 1670.41 3653.01 1662.94 3664.76 1653.33C3676.5 1643.18 3682.64 1631.17 3683.18 1617.29C3689.58 1450.2 3692.79 1281.77 3692.79 1112C3692.79 939.031 3690.12 789.819 3684.78 664.363C3684.24 650.483 3678.1 638.738 3666.36 629.129C3654.61 618.986 3637.53 611.245 3615.11 605.906C3593.22 600.568 3574.54 596.831 3559.05 594.695C3544.11 592.026 3524.35 589.624 3499.8 587.488C3497.66 577.879 3496.59 571.206 3496.59 567.469C3496.59 562.13 3497.66 556.258 3499.8 549.852Z"/>
</mask>
<path d="M1515.46 549.852C1635.04 554.122 1727.93 556.258 1794.13 556.258C1860.33 556.258 1953.22 554.122 2072.8 549.852C2074.94 558.393 2076.01 564.266 2076.01 567.469C2076.01 573.341 2074.94 580.014 2072.8 587.488C2048.25 589.624 2028.23 592.026 2012.75 594.695C1997.8 596.831 1979.11 600.568 1956.69 605.906C1934.8 611.245 1917.99 618.986 1906.24 629.129C1894.5 638.738 1888.36 650.483 1887.82 664.363C1880.88 845.874 1877.41 1014.84 1877.41 1171.26C1877.41 1285.5 1880.35 1434.18 1886.22 1617.29C1886.76 1631.17 1892.9 1643.18 1904.64 1653.33C1916.39 1662.94 1933.2 1670.41 1955.09 1675.75C1977.51 1681.09 1996.2 1685.09 2011.14 1687.76C2026.63 1689.9 2046.65 1692.03 2071.2 1694.17C2073.34 1700.57 2074.41 1707.78 2074.41 1715.79C2074.41 1720.06 2073.34 1725.4 2071.2 1731.8C1980.45 1728.6 1887.56 1727 1792.53 1727C1696.44 1727 1603.55 1728.6 1513.86 1731.8C1511.72 1725.4 1510.66 1720.06 1510.66 1715.79C1510.66 1706.71 1511.72 1699.51 1513.86 1694.17C1529.88 1692.57 1542.69 1691.23 1552.3 1690.16C1561.91 1689.1 1574.99 1687.23 1591.54 1684.56C1608.62 1681.89 1622.23 1678.95 1632.38 1675.75C1643.05 1672.01 1654 1667.48 1665.21 1662.14C1676.42 1656.8 1684.69 1650.39 1690.03 1642.92C1695.9 1635.44 1698.84 1626.9 1698.84 1617.29C1705.25 1450.2 1708.45 1281.77 1708.45 1112C1708.45 939.031 1705.78 789.819 1700.44 664.363C1699.91 650.483 1693.77 638.738 1682.02 629.129C1670.28 618.986 1653.2 611.245 1630.77 605.906C1608.89 600.568 1590.2 596.831 1574.72 594.695C1559.77 592.026 1540.02 589.624 1515.46 587.488C1513.33 577.879 1512.26 571.206 1512.26 567.469C1512.26 562.13 1513.33 556.258 1515.46 549.852ZM2260.19 549.852C2318.38 551.987 2390.98 553.589 2478 554.656C2565.02 555.724 2667.25 556.258 2784.7 556.258C2902.15 556.258 3004.38 555.724 3091.4 554.656C3178.95 553.589 3252.09 551.987 3310.81 549.852C3314.02 572.807 3318.02 594.962 3322.82 616.316C3327.63 637.137 3335.64 660.359 3346.85 685.984L3370.87 740.438L3429.33 854.148C3425.59 862.69 3416.25 869.897 3401.3 875.77C3383.15 842.137 3360.99 810.105 3334.84 779.676C3308.68 749.246 3275.31 721.753 3234.74 697.195C3194.7 672.638 3145.58 652.085 3087.39 635.535C3029.74 618.986 2960.07 607.775 2878.39 601.902C2875.72 668.634 2873.59 744.174 2871.98 828.523C2870.92 912.339 2870.38 1005.76 2870.38 1108.8C2870.38 1212.36 2870.92 1306.32 2871.98 1390.67C2873.59 1475.02 2875.72 1550.56 2878.39 1617.29C2878.92 1630.11 2884 1641.05 2893.61 1650.12C2903.21 1658.67 2916.29 1665.87 2932.84 1671.75C2949.93 1677.62 2969.41 1682.42 2991.3 1686.16C3013.72 1689.36 3037.75 1692.03 3063.37 1694.17C3065.51 1703.24 3066.57 1710.45 3066.57 1715.79C3066.57 1720.59 3065.51 1725.93 3063.37 1731.8C2973.68 1728.6 2880.79 1727 2784.7 1727C2689.14 1727 2596.25 1728.6 2506.03 1731.8C2503.89 1725.93 2502.82 1720.59 2502.82 1715.79C2502.82 1710.45 2503.89 1703.24 2506.03 1694.17L2544.46 1690.16C2558.35 1688.56 2573.83 1686.43 2590.91 1683.76C2607.99 1680.55 2623.74 1676.28 2638.16 1670.95C2653.1 1665.61 2665.65 1658.93 2675.79 1650.93C2685.94 1642.92 2691.01 1633.04 2691.01 1621.3V1617.29C2693.68 1519.6 2695.81 1428.58 2697.41 1344.23C2699.02 1259.88 2699.82 1181.4 2699.82 1108.8C2699.82 1036.73 2699.02 958.784 2697.41 874.969C2695.81 790.62 2693.68 699.598 2691.01 601.902C2614.13 606.173 2547.13 616.583 2490.01 633.133C2433.42 649.148 2384.31 669.435 2342.67 693.992C2301.03 718.016 2266.33 745.776 2238.57 777.273C2210.81 808.237 2187.85 841.069 2169.7 875.77C2154.75 869.897 2145.41 862.69 2141.67 854.148L2177.71 786.082L2194.52 751.648C2201.46 737.234 2208.4 722.553 2215.34 707.605C2222.28 692.658 2228.69 677.176 2234.56 661.16C2240.97 644.611 2246.31 627.26 2250.58 609.109C2254.85 590.424 2258.05 570.672 2260.19 549.852ZM3499.8 549.852C3619.38 554.122 3712.27 556.258 3778.47 556.258C3844.67 556.258 3937.56 554.122 4057.14 549.852C4059.28 558.393 4060.34 564.266 4060.34 567.469C4060.34 571.206 4059.28 577.879 4057.14 587.488C4032.58 589.624 4012.56 592.026 3997.08 594.695C3982.13 596.831 3963.45 600.568 3941.03 605.906C3919.14 611.245 3902.32 618.986 3890.58 629.129C3878.83 638.738 3872.69 650.483 3872.16 664.363C3865.22 823.986 3861.75 972.664 3861.75 1110.4C3921.01 1112.53 4010.7 1113.6 4130.81 1113.6C4229.04 1113.6 4327.54 1112 4426.3 1108.8C4424.17 910.203 4421.5 762.059 4418.29 664.363C4417.76 650.483 4411.62 638.738 4399.88 629.129C4388.13 618.986 4371.05 611.245 4348.62 605.906C4326.2 600.568 4307.25 596.831 4291.77 594.695C4276.82 592.026 4257.07 589.624 4232.51 587.488C4230.38 577.879 4229.31 571.206 4229.31 567.469C4229.31 564.266 4230.38 558.393 4232.51 549.852C4353.16 554.122 4446.05 556.258 4511.18 556.258C4576.85 556.258 4670.01 554.122 4790.66 549.852C4792.79 558.393 4793.86 564.266 4793.86 567.469C4793.86 571.206 4792.79 577.879 4790.66 587.488C4766.1 589.624 4746.08 592.026 4730.6 594.695C4715.65 596.831 4696.96 600.568 4674.54 605.906C4652.12 611.245 4635.04 618.986 4623.29 629.129C4611.55 638.738 4605.41 650.483 4604.88 664.363C4599.54 797.293 4596.87 956.382 4596.87 1141.63C4596.87 1325.81 4599.54 1484.36 4604.88 1617.29C4605.41 1631.17 4611.55 1643.18 4623.29 1653.33C4635.04 1662.94 4652.12 1670.41 4674.54 1675.75C4696.96 1681.09 4715.65 1685.09 4730.6 1687.76C4746.08 1689.9 4766.1 1692.03 4790.66 1694.17C4792.79 1702.71 4793.86 1709.92 4793.86 1715.79C4793.86 1720.06 4792.79 1725.4 4790.66 1731.8C4699.9 1728.6 4606.74 1727 4511.18 1727C4415.62 1727 4322.73 1728.6 4232.51 1731.8C4230.38 1725.4 4229.31 1720.06 4229.31 1715.79C4229.31 1706.71 4230.38 1699.51 4232.51 1694.17C4257.07 1692.03 4277.09 1689.9 4292.57 1687.76C4308.05 1685.09 4327 1681.09 4349.43 1675.75C4371.85 1670.41 4388.93 1662.94 4400.68 1653.33C4412.42 1643.18 4418.29 1631.17 4418.29 1617.29C4422.56 1426.71 4425.23 1282.3 4426.3 1184.07C4327.54 1180.87 4229.04 1179.27 4130.81 1179.27C4069.95 1179.27 3980.27 1180.33 3861.75 1182.47C3861.75 1296.18 3864.69 1441.12 3870.56 1617.29C3871.09 1631.17 3877.23 1643.18 3888.98 1653.33C3900.72 1662.94 3917.54 1670.41 3939.43 1675.75C3961.85 1681.09 3980.53 1685.09 3995.48 1687.76C4010.96 1689.9 4030.98 1692.03 4055.54 1694.17C4057.67 1704.85 4058.74 1712.05 4058.74 1715.79C4058.74 1720.06 4057.67 1725.4 4055.54 1731.8C3964.78 1728.6 3871.89 1727 3776.87 1727C3680.77 1727 3587.88 1728.6 3498.2 1731.8C3496.06 1725.4 3494.99 1720.06 3494.99 1715.79C3494.99 1706.71 3496.06 1699.51 3498.2 1694.17C3522.75 1692.03 3542.51 1689.9 3557.45 1687.76C3572.93 1685.09 3591.62 1681.09 3613.51 1675.75C3635.93 1670.41 3653.01 1662.94 3664.76 1653.33C3676.5 1643.18 3682.64 1631.17 3683.18 1617.29C3689.58 1450.2 3692.79 1281.77 3692.79 1112C3692.79 939.031 3690.12 789.819 3684.78 664.363C3684.24 650.483 3678.1 638.738 3666.36 629.129C3654.61 618.986 3637.53 611.245 3615.11 605.906C3593.22 600.568 3574.54 596.831 3559.05 594.695C3544.11 592.026 3524.35 589.624 3499.8 587.488C3497.66 577.879 3496.59 571.206 3496.59 567.469C3496.59 562.13 3497.66 556.258 3499.8 549.852Z" fill="#151F36"/>
<path d="M1515.46 549.852L1515.5 548.852L1514.75 548.825L1514.51 549.535L1515.46 549.852ZM2072.8 549.852L2073.77 549.609L2073.58 548.823L2072.77 548.852L2072.8 549.852ZM2072.8 587.488L2072.89 588.485L2073.58 588.425L2073.77 587.763L2072.8 587.488ZM2012.75 594.695L2012.89 595.685L2012.9 595.683L2012.92 595.681L2012.75 594.695ZM1956.69 605.906L1956.46 604.933L1956.45 604.935L1956.69 605.906ZM1906.24 629.129L1906.88 629.903L1906.89 629.894L1906.9 629.886L1906.24 629.129ZM1887.82 664.363L1886.82 664.325L1886.82 664.325L1887.82 664.363ZM1886.22 1617.29L1885.22 1617.33L1885.22 1617.33L1886.22 1617.29ZM1904.64 1653.33L1903.99 1654.08L1904 1654.09L1904.01 1654.1L1904.64 1653.33ZM1955.09 1675.75L1954.85 1676.72L1954.86 1676.72L1955.09 1675.75ZM2011.14 1687.76L2010.97 1688.75L2010.99 1688.75L2011.01 1688.75L2011.14 1687.76ZM2071.2 1694.17L2072.15 1693.85L2071.94 1693.23L2071.29 1693.17L2071.2 1694.17ZM2071.2 1731.8L2071.17 1732.8L2071.92 1732.83L2072.15 1732.12L2071.2 1731.8ZM1513.86 1731.8L1512.91 1732.12L1513.15 1732.83L1513.9 1732.8L1513.86 1731.8ZM1513.86 1694.17L1513.76 1693.17L1513.16 1693.23L1512.93 1693.8L1513.86 1694.17ZM1591.54 1684.56L1591.38 1683.57L1591.38 1683.57L1591.54 1684.56ZM1632.38 1675.75L1632.68 1676.7L1632.69 1676.7L1632.71 1676.69L1632.38 1675.75ZM1690.03 1642.92L1689.24 1642.3L1689.23 1642.32L1689.22 1642.34L1690.03 1642.92ZM1698.84 1617.29L1697.84 1617.25L1697.84 1617.27V1617.29H1698.84ZM1700.44 664.363L1699.44 664.402L1699.44 664.406L1700.44 664.363ZM1682.02 629.129L1681.37 629.886L1681.38 629.894L1681.39 629.903L1682.02 629.129ZM1630.77 605.906L1630.54 606.878L1630.54 606.879L1630.77 605.906ZM1574.72 594.695L1574.54 595.68L1574.56 595.683L1574.58 595.686L1574.72 594.695ZM1515.46 587.488L1514.48 587.705L1514.64 588.421L1515.37 588.485L1515.46 587.488ZM1515.46 549.852L1515.43 550.851C1635.01 555.122 1727.92 557.258 1794.13 557.258V556.258V555.258C1727.95 555.258 1635.08 553.123 1515.5 548.852L1515.46 549.852ZM1794.13 556.258V557.258C1860.35 557.258 1953.25 555.122 2072.84 550.851L2072.8 549.852L2072.77 548.852C1953.19 553.123 1860.31 555.258 1794.13 555.258V556.258ZM2072.8 549.852L2071.83 550.094C2073.97 558.649 2075.01 564.406 2075.01 567.469H2076.01H2077.01C2077.01 564.125 2075.91 558.138 2073.77 549.609L2072.8 549.852ZM2076.01 567.469H2075.01C2075.01 573.224 2073.96 579.802 2071.84 587.214L2072.8 587.488L2073.77 587.763C2075.92 580.227 2077.01 573.458 2077.01 567.469H2076.01ZM2072.8 587.488L2072.72 586.492C2048.15 588.629 2028.1 591.034 2012.58 593.71L2012.75 594.695L2012.92 595.681C2028.36 593.018 2048.35 590.619 2072.89 588.485L2072.8 587.488ZM2012.75 594.695L2012.6 593.705C1997.62 595.847 1978.9 599.591 1956.46 604.933L1956.69 605.906L1956.92 606.879C1979.33 601.544 1997.98 597.815 2012.89 595.685L2012.75 594.695ZM1956.69 605.906L1956.45 604.935C1934.48 610.295 1917.5 618.089 1905.59 628.372L1906.24 629.129L1906.9 629.886C1918.48 619.882 1935.13 612.195 1956.93 606.878L1956.69 605.906ZM1906.24 629.129L1905.61 628.355C1893.67 638.127 1887.37 650.13 1886.82 664.325L1887.82 664.363L1888.82 664.402C1889.35 650.836 1895.33 639.35 1906.88 629.903L1906.24 629.129ZM1887.82 664.363L1886.82 664.325C1879.88 845.846 1876.41 1014.82 1876.41 1171.26H1877.41H1878.41C1878.41 1014.85 1881.88 845.901 1888.82 664.401L1887.82 664.363ZM1877.41 1171.26H1876.41C1876.41 1285.52 1879.35 1434.21 1885.22 1617.33L1886.22 1617.29L1887.22 1617.26C1881.35 1434.15 1878.41 1285.49 1878.41 1171.26H1877.41ZM1886.22 1617.29L1885.22 1617.33C1885.77 1631.52 1892.06 1643.78 1903.99 1654.08L1904.64 1653.33L1905.29 1652.57C1893.73 1642.59 1887.74 1630.82 1887.22 1617.25L1886.22 1617.29ZM1904.64 1653.33L1904.01 1654.1C1915.91 1663.84 1932.88 1671.36 1954.85 1676.72L1955.09 1675.75L1955.33 1674.78C1933.52 1669.46 1916.86 1662.03 1905.27 1652.55L1904.64 1653.33ZM1955.09 1675.75L1954.86 1676.72C1977.29 1682.06 1996 1686.07 2010.97 1688.75L2011.14 1687.76L2011.32 1686.78C1996.4 1684.11 1977.73 1680.11 1955.32 1674.78L1955.09 1675.75ZM2011.14 1687.76L2011.01 1688.75C2026.51 1690.89 2046.55 1693.03 2071.12 1695.16L2071.2 1694.17L2071.29 1693.17C2046.74 1691.04 2026.74 1688.9 2011.28 1686.77L2011.14 1687.76ZM2071.2 1694.17L2070.25 1694.48C2072.35 1700.77 2073.41 1707.87 2073.41 1715.79H2074.41H2075.41C2075.41 1707.69 2074.33 1700.38 2072.15 1693.85L2071.2 1694.17ZM2074.41 1715.79H2073.41C2073.41 1719.91 2072.37 1725.13 2070.25 1731.49L2071.2 1731.8L2072.15 1732.12C2074.3 1725.66 2075.41 1720.21 2075.41 1715.79H2074.41ZM2071.2 1731.8L2071.24 1730.81C1980.47 1727.6 1887.57 1726 1792.53 1726V1727V1728C1887.55 1728 1980.42 1729.6 2071.17 1732.8L2071.2 1731.8ZM1792.53 1727V1726C1696.43 1726 1603.52 1727.6 1513.82 1730.81L1513.86 1731.8L1513.9 1732.8C1603.57 1729.6 1696.45 1728 1792.53 1728V1727ZM1513.86 1731.8L1514.81 1731.49C1512.69 1725.13 1511.66 1719.91 1511.66 1715.79H1510.66H1509.66C1509.66 1720.21 1510.76 1725.66 1512.91 1732.12L1513.86 1731.8ZM1510.66 1715.79H1511.66C1511.66 1706.78 1512.72 1699.71 1514.79 1694.54L1513.86 1694.17L1512.93 1693.8C1510.73 1699.3 1509.66 1706.65 1509.66 1715.79H1510.66ZM1513.86 1694.17L1513.96 1695.16C1529.98 1693.56 1542.79 1692.23 1552.41 1691.16L1552.3 1690.16L1552.19 1689.17C1542.58 1690.24 1529.77 1691.57 1513.76 1693.17L1513.86 1694.17ZM1552.3 1690.16L1552.41 1691.16C1562.04 1690.09 1575.14 1688.22 1591.69 1685.55L1591.54 1684.56L1591.38 1683.57C1574.83 1686.24 1561.77 1688.11 1552.19 1689.17L1552.3 1690.16ZM1591.54 1684.56L1591.69 1685.55C1608.8 1682.87 1622.46 1679.93 1632.68 1676.7L1632.38 1675.75L1632.07 1674.8C1622 1677.98 1608.44 1680.9 1591.38 1683.57L1591.54 1684.56ZM1632.38 1675.75L1632.71 1676.69C1643.42 1672.94 1654.4 1668.39 1665.64 1663.04L1665.21 1662.14L1664.78 1661.23C1653.6 1666.56 1642.68 1671.08 1632.04 1674.81L1632.38 1675.75ZM1665.21 1662.14L1665.64 1663.04C1676.95 1657.65 1685.38 1651.15 1690.84 1643.5L1690.03 1642.92L1689.22 1642.34C1684.01 1649.63 1675.89 1655.94 1664.78 1661.23L1665.21 1662.14ZM1690.03 1642.92L1690.82 1643.54C1696.83 1635.88 1699.84 1627.12 1699.84 1617.29H1698.84H1697.84C1697.84 1626.68 1694.98 1635 1689.24 1642.3L1690.03 1642.92ZM1698.84 1617.29L1699.84 1617.33C1706.25 1450.22 1709.45 1281.78 1709.45 1112H1708.45H1707.45C1707.45 1281.75 1704.25 1450.17 1697.84 1617.25L1698.84 1617.29ZM1708.45 1112H1709.45C1709.45 939.022 1706.78 789.795 1701.44 664.321L1700.44 664.363L1699.44 664.406C1704.78 789.843 1707.45 939.041 1707.45 1112H1708.45ZM1700.44 664.363L1701.44 664.325C1700.89 650.13 1694.6 638.127 1682.66 628.355L1682.02 629.129L1681.39 629.903C1692.94 639.35 1698.92 650.836 1699.44 664.402L1700.44 664.363ZM1682.02 629.129L1682.68 628.372C1670.77 618.086 1653.51 610.293 1631.01 604.933L1630.77 605.906L1630.54 606.879C1652.88 612.197 1669.79 619.886 1681.37 629.886L1682.02 629.129ZM1630.77 605.906L1631.01 604.935C1609.1 599.591 1590.38 595.846 1574.86 593.705L1574.72 594.695L1574.58 595.686C1590.02 597.815 1608.67 601.544 1630.54 606.878L1630.77 605.906ZM1574.72 594.695L1574.89 593.711C1559.9 591.034 1540.12 588.629 1515.55 586.492L1515.46 587.488L1515.37 588.485C1539.92 590.619 1559.64 593.018 1574.54 595.68L1574.72 594.695ZM1515.46 587.488L1516.44 587.271C1514.3 577.654 1513.26 571.081 1513.26 567.469H1512.26H1511.26C1511.26 571.33 1512.35 578.104 1514.48 587.705L1515.46 587.488ZM1512.26 567.469H1513.26C1513.26 562.262 1514.3 556.498 1516.41 550.168L1515.46 549.852L1514.51 549.535C1512.35 556.018 1511.26 561.999 1511.26 567.469H1512.26ZM2260.19 549.852L2260.22 548.852L2259.29 548.818L2259.19 549.75L2260.19 549.852ZM3091.4 554.656L3091.39 553.656L3091.39 553.656L3091.4 554.656ZM3310.81 549.852L3311.8 549.713L3311.68 548.819L3310.78 548.852L3310.81 549.852ZM3322.82 616.316L3321.85 616.536L3321.85 616.541L3322.82 616.316ZM3346.85 685.984L3345.93 686.385L3345.93 686.388L3346.85 685.984ZM3370.87 740.438L3369.96 740.841L3369.97 740.868L3369.98 740.895L3370.87 740.438ZM3429.33 854.148L3430.24 854.549L3430.43 854.114L3430.22 853.691L3429.33 854.148ZM3401.3 875.77L3400.42 876.244L3400.84 877.024L3401.67 876.7L3401.3 875.77ZM3234.74 697.195L3234.22 698.048L3234.22 698.051L3234.74 697.195ZM3087.39 635.535L3087.12 636.496L3087.12 636.497L3087.39 635.535ZM2878.39 601.902L2878.46 600.905L2877.43 600.831L2877.39 601.862L2878.39 601.902ZM2871.98 828.523L2870.98 828.504L2870.98 828.511L2871.98 828.523ZM2871.98 1390.67L2870.98 1390.68L2870.98 1390.69L2871.98 1390.67ZM2878.39 1617.29L2877.39 1617.33L2877.39 1617.33L2878.39 1617.29ZM2893.61 1650.12L2892.92 1650.85L2892.93 1650.86L2892.94 1650.87L2893.61 1650.12ZM2932.84 1671.75L2932.51 1672.69L2932.52 1672.69L2932.84 1671.75ZM2991.3 1686.16L2991.13 1687.15L2991.15 1687.15L2991.16 1687.15L2991.3 1686.16ZM3063.37 1694.17L3064.34 1693.94L3064.18 1693.23L3063.45 1693.17L3063.37 1694.17ZM3063.37 1731.8L3063.34 1732.8L3064.06 1732.83L3064.31 1732.15L3063.37 1731.8ZM2506.03 1731.8L2505.09 1732.15L2505.34 1732.83L2506.06 1732.8L2506.03 1731.8ZM2506.03 1694.17L2505.92 1693.17L2505.22 1693.25L2505.05 1693.94L2506.03 1694.17ZM2544.46 1690.16L2544.57 1691.16L2544.58 1691.16L2544.46 1690.16ZM2590.91 1683.76L2591.06 1684.75L2591.08 1684.74L2591.09 1684.74L2590.91 1683.76ZM2638.16 1670.95L2637.82 1670L2637.81 1670.01L2638.16 1670.95ZM2691.01 1617.29L2690.01 1617.27L2690.01 1617.28V1617.29H2691.01ZM2697.41 874.969L2696.41 874.988L2696.41 874.988L2697.41 874.969ZM2691.01 601.902L2692.01 601.875L2691.98 600.847L2690.95 600.904L2691.01 601.902ZM2490.01 633.133L2490.28 634.095L2490.29 634.093L2490.01 633.133ZM2342.67 693.992L2343.17 694.858L2343.18 694.854L2342.67 693.992ZM2238.57 777.273L2239.31 777.941L2239.32 777.935L2238.57 777.273ZM2169.7 875.77L2169.33 876.7L2170.17 877.029L2170.59 876.233L2169.7 875.77ZM2141.67 854.148L2140.79 853.681L2140.56 854.107L2140.76 854.549L2141.67 854.148ZM2177.71 786.082L2178.59 786.55L2178.6 786.536L2178.61 786.521L2177.71 786.082ZM2194.52 751.648L2195.42 752.087L2195.42 752.082L2194.52 751.648ZM2234.56 661.16L2233.63 660.799L2233.63 660.808L2233.62 660.816L2234.56 661.16ZM2250.58 609.109L2251.55 609.338L2251.55 609.332L2250.58 609.109ZM2260.19 549.852L2260.15 550.851C2318.35 552.987 2390.96 554.588 2477.99 555.656L2478 554.656L2478.01 553.656C2391 552.589 2318.4 550.987 2260.22 548.852L2260.19 549.852ZM2478 554.656L2477.99 555.656C2565.01 556.724 2667.25 557.258 2784.7 557.258V556.258V555.258C2667.25 555.258 2565.03 554.724 2478.01 553.656L2478 554.656ZM2784.7 556.258V557.258C2902.15 557.258 3004.39 556.724 3091.41 555.656L3091.4 554.656L3091.39 553.656C3004.37 554.724 2902.14 555.258 2784.7 555.258V556.258ZM3091.4 554.656L3091.41 555.656C3178.97 554.588 3252.11 552.987 3310.85 550.851L3310.81 549.852L3310.78 548.852C3252.06 550.987 3178.93 552.589 3091.39 553.656L3091.4 554.656ZM3310.81 549.852L3309.82 549.99C3313.03 572.971 3317.04 595.153 3321.85 616.536L3322.82 616.316L3323.8 616.097C3319 594.771 3315 572.643 3311.8 549.713L3310.81 549.852ZM3322.82 616.316L3321.85 616.541C3326.67 637.437 3334.7 660.72 3345.93 686.385L3346.85 685.984L3347.76 685.584C3336.57 659.999 3328.59 636.836 3323.8 616.092L3322.82 616.316ZM3346.85 685.984L3345.93 686.388L3369.96 740.841L3370.87 740.438L3371.79 740.034L3347.76 685.581L3346.85 685.984ZM3370.87 740.438L3369.98 740.895L3428.44 854.606L3429.33 854.148L3430.22 853.691L3371.76 739.98L3370.87 740.438ZM3429.33 854.148L3428.41 853.748C3424.84 861.922 3415.8 868.998 3400.94 874.839L3401.3 875.77L3401.67 876.7C3416.69 870.796 3426.35 863.459 3430.24 854.549L3429.33 854.148ZM3401.3 875.77L3402.18 875.295C3383.99 841.596 3361.8 809.505 3335.59 779.024L3334.84 779.676L3334.08 780.328C3360.19 810.706 3382.31 842.678 3400.42 876.244L3401.3 875.77ZM3334.84 779.676L3335.59 779.024C3309.36 748.501 3275.9 720.942 3235.26 696.34L3234.74 697.195L3234.22 698.051C3274.72 722.563 3308 749.991 3334.08 780.328L3334.84 779.676ZM3234.74 697.195L3235.26 696.343C3195.13 671.727 3145.92 651.141 3087.67 634.573L3087.39 635.535L3087.12 636.497C3145.25 653.028 3194.27 673.55 3234.22 698.048L3234.74 697.195ZM3087.39 635.535L3087.67 634.574C3029.93 618 2960.19 606.781 2878.46 600.905L2878.39 601.902L2878.32 602.9C2959.95 608.769 3029.55 619.971 3087.12 636.496L3087.39 635.535ZM2878.39 601.902L2877.39 601.862C2874.72 668.603 2872.59 744.15 2870.98 828.504L2871.98 828.523L2872.98 828.542C2874.59 744.199 2876.72 668.666 2879.39 601.942L2878.39 601.902ZM2871.98 828.523L2870.98 828.511C2869.92 912.331 2869.38 1005.76 2869.38 1108.8H2870.38H2871.38C2871.38 1005.77 2871.92 912.346 2872.98 828.536L2871.98 828.523ZM2870.38 1108.8H2869.38C2869.38 1212.37 2869.92 1306.33 2870.98 1390.68L2871.98 1390.67L2872.98 1390.66C2871.92 1306.32 2871.38 1212.36 2871.38 1108.8H2870.38ZM2871.98 1390.67L2870.98 1390.69C2872.59 1475.05 2874.72 1550.59 2877.39 1617.33L2878.39 1617.29L2879.39 1617.25C2876.72 1550.53 2874.59 1475 2872.98 1390.65L2871.98 1390.67ZM2878.39 1617.29L2877.39 1617.33C2877.94 1630.42 2883.13 1641.6 2892.92 1650.85L2893.61 1650.12L2894.29 1649.4C2884.87 1640.5 2879.91 1629.79 2879.39 1617.25L2878.39 1617.29ZM2893.61 1650.12L2892.94 1650.87C2902.68 1659.52 2915.88 1666.79 2932.51 1672.69L2932.84 1671.75L2933.18 1670.8C2916.71 1664.96 2903.75 1657.81 2894.27 1649.38L2893.61 1650.12ZM2932.84 1671.75L2932.52 1672.69C2949.66 1678.59 2969.2 1683.4 2991.13 1687.15L2991.3 1686.16L2991.47 1685.17C2969.62 1681.44 2950.19 1676.65 2933.17 1670.8L2932.84 1671.75ZM2991.3 1686.16L2991.16 1687.15C3013.6 1690.36 3037.65 1693.03 3063.29 1695.16L3063.37 1694.17L3063.45 1693.17C3037.85 1691.04 3013.84 1688.37 2991.44 1685.17L2991.3 1686.16ZM3063.37 1694.17L3062.4 1694.4C3064.53 1703.44 3065.57 1710.56 3065.57 1715.79H3066.57H3067.57C3067.57 1710.34 3066.49 1703.04 3064.34 1693.94L3063.37 1694.17ZM3066.57 1715.79H3065.57C3065.57 1720.45 3064.54 1725.67 3062.43 1731.46L3063.37 1731.8L3064.31 1732.15C3066.47 1726.2 3067.57 1720.74 3067.57 1715.79H3066.57ZM3063.37 1731.8L3063.41 1730.81C2973.71 1727.6 2880.8 1726 2784.7 1726V1727V1728C2880.78 1728 2973.66 1729.6 3063.34 1732.8L3063.37 1731.8ZM2784.7 1727V1726C2689.13 1726 2596.23 1727.6 2505.99 1730.81L2506.03 1731.8L2506.06 1732.8C2596.27 1729.6 2689.15 1728 2784.7 1728V1727ZM2506.03 1731.8L2506.97 1731.46C2504.86 1725.67 2503.82 1720.45 2503.82 1715.79H2502.82H2501.82C2501.82 1720.74 2502.92 1726.2 2505.09 1732.15L2506.03 1731.8ZM2502.82 1715.79H2503.82C2503.82 1710.56 2504.87 1703.44 2507 1694.4L2506.03 1694.17L2505.05 1693.94C2502.91 1703.04 2501.82 1710.34 2501.82 1715.79H2502.82ZM2506.03 1694.17L2506.13 1695.16L2544.57 1691.16L2544.46 1690.16L2544.36 1689.17L2505.92 1693.17L2506.03 1694.17ZM2544.46 1690.16L2544.58 1691.16C2558.48 1689.55 2573.97 1687.42 2591.06 1684.75L2590.91 1683.76L2590.76 1682.77C2573.68 1685.44 2558.21 1687.57 2544.35 1689.17L2544.46 1690.16ZM2590.91 1683.76L2591.09 1684.74C2608.23 1681.53 2624.03 1677.24 2638.5 1671.88L2638.16 1670.95L2637.81 1670.01C2623.45 1675.32 2607.76 1679.58 2590.73 1682.77L2590.91 1683.76ZM2638.16 1670.95L2638.49 1671.89C2653.52 1666.52 2666.17 1659.8 2676.41 1651.71L2675.79 1650.93L2675.17 1650.14C2665.13 1658.07 2652.69 1664.69 2637.82 1670L2638.16 1670.95ZM2675.79 1650.93L2676.41 1651.71C2686.77 1643.53 2692.01 1633.38 2692.01 1621.3H2691.01H2690.01C2690.01 1632.7 2685.1 1642.3 2675.17 1650.14L2675.79 1650.93ZM2691.01 1621.3H2692.01V1617.29H2691.01H2690.01V1621.3H2691.01ZM2691.01 1617.29L2692.01 1617.32C2694.68 1519.62 2696.81 1428.6 2698.41 1344.25L2697.41 1344.23L2696.41 1344.21C2694.81 1428.55 2692.68 1519.57 2690.01 1617.27L2691.01 1617.29ZM2697.41 1344.23L2698.41 1344.25C2700.02 1259.89 2700.82 1181.41 2700.82 1108.8H2699.82H2698.82C2698.82 1181.39 2698.02 1259.86 2696.41 1344.21L2697.41 1344.23ZM2699.82 1108.8H2700.82C2700.82 1036.72 2700.02 958.77 2698.41 874.95L2697.41 874.969L2696.41 874.988C2698.02 958.798 2698.82 1036.73 2698.82 1108.8H2699.82ZM2697.41 874.969L2698.41 874.95C2696.81 790.598 2694.68 699.573 2692.01 601.875L2691.01 601.902L2690.01 601.93C2692.68 699.623 2694.81 790.642 2696.41 874.988L2697.41 874.969ZM2691.01 601.902L2690.95 600.904C2614.02 605.178 2546.95 615.597 2489.73 632.172L2490.01 633.133L2490.29 634.093C2547.32 617.57 2614.24 607.169 2691.06 602.901L2691.01 601.902ZM2490.01 633.133L2489.74 632.171C2433.09 648.205 2383.89 668.522 2342.16 693.131L2342.67 693.992L2343.18 694.854C2384.73 670.348 2433.76 650.092 2490.28 634.095L2490.01 633.133ZM2342.67 693.992L2342.17 693.126C2300.45 717.196 2265.66 745.023 2237.82 776.612L2238.57 777.273L2239.32 777.935C2267 746.53 2301.61 718.835 2343.17 694.858L2342.67 693.992ZM2238.57 777.273L2237.82 776.606C2210.01 807.627 2187 840.527 2168.81 875.306L2169.7 875.77L2170.59 876.233C2188.7 841.611 2211.6 808.846 2239.31 777.941L2238.57 777.273ZM2169.7 875.77L2170.06 874.839C2155.2 868.998 2146.16 861.922 2142.59 853.748L2141.67 854.148L2140.76 854.549C2144.65 863.459 2154.31 870.796 2169.33 876.7L2169.7 875.77ZM2141.67 854.148L2142.56 854.616L2178.59 786.55L2177.71 786.082L2176.82 785.614L2140.79 853.681L2141.67 854.148ZM2177.71 786.082L2178.61 786.521L2195.42 752.087L2194.52 751.648L2193.62 751.21L2176.81 785.643L2177.71 786.082ZM2194.52 751.648L2195.42 752.082C2202.37 737.664 2209.31 722.979 2216.25 708.027L2215.34 707.605L2214.44 707.184C2207.5 722.128 2200.56 736.805 2193.62 751.215L2194.52 751.648ZM2215.34 707.605L2216.25 708.027C2223.2 693.053 2229.62 677.545 2235.5 661.504L2234.56 661.16L2233.62 660.816C2227.76 676.806 2221.36 692.262 2214.44 707.184L2215.34 707.605ZM2234.56 661.16L2235.5 661.521C2241.92 644.927 2247.27 627.532 2251.55 609.338L2250.58 609.109L2249.6 608.88C2245.34 626.989 2240.02 644.295 2233.63 660.799L2234.56 661.16ZM2250.58 609.109L2251.55 609.332C2255.83 590.604 2259.04 570.811 2261.18 549.954L2260.19 549.852L2259.19 549.75C2257.06 570.533 2253.86 590.245 2249.6 608.887L2250.58 609.109ZM3499.8 549.852L3499.83 548.852L3499.08 548.825L3498.85 549.535L3499.8 549.852ZM4057.14 549.852L4058.11 549.609L4057.91 548.823L4057.1 548.852L4057.14 549.852ZM4057.14 587.488L4057.23 588.485L4057.96 588.421L4058.12 587.705L4057.14 587.488ZM3997.08 594.695L3997.22 595.685L3997.24 595.683L3997.25 595.681L3997.08 594.695ZM3941.03 605.906L3940.8 604.933L3940.79 604.935L3941.03 605.906ZM3890.58 629.129L3891.21 629.903L3891.22 629.894L3891.23 629.886L3890.58 629.129ZM3872.16 664.363L3873.16 664.407L3873.16 664.402L3872.16 664.363ZM3861.75 1110.4H3860.75V1111.36L3861.71 1111.4L3861.75 1110.4ZM4426.3 1108.8L4426.33 1109.8L4427.31 1109.76L4427.3 1108.79L4426.3 1108.8ZM4418.29 664.363L4419.29 664.331L4419.29 664.325L4418.29 664.363ZM4399.88 629.129L4399.22 629.886L4399.23 629.894L4399.24 629.903L4399.88 629.129ZM4291.77 594.695L4291.59 595.68L4291.61 595.683L4291.63 595.686L4291.77 594.695ZM4232.51 587.488L4231.54 587.705L4231.69 588.421L4232.43 588.485L4232.51 587.488ZM4232.51 549.852L4232.55 548.852L4231.74 548.824L4231.54 549.609L4232.51 549.852ZM4790.66 549.852L4791.63 549.609L4791.43 548.824L4790.62 548.852L4790.66 549.852ZM4790.66 587.488L4790.74 588.485L4791.47 588.421L4791.63 587.705L4790.66 587.488ZM4730.6 594.695L4730.74 595.685L4730.75 595.683L4730.77 595.681L4730.6 594.695ZM4623.29 629.129L4623.93 629.903L4623.94 629.894L4623.95 629.886L4623.29 629.129ZM4604.88 664.363L4605.87 664.403L4605.87 664.402L4604.88 664.363ZM4604.88 1617.29L4605.87 1617.25L4605.87 1617.25L4604.88 1617.29ZM4623.29 1653.33L4622.64 1654.08L4622.65 1654.09L4622.66 1654.1L4623.29 1653.33ZM4674.54 1675.75L4674.31 1676.72L4674.54 1675.75ZM4730.6 1687.76L4730.42 1688.75L4730.44 1688.75L4730.46 1688.75L4730.6 1687.76ZM4790.66 1694.17L4791.63 1693.93L4791.45 1693.23L4790.74 1693.17L4790.66 1694.17ZM4790.66 1731.8L4790.62 1732.8L4791.37 1732.83L4791.6 1732.12L4790.66 1731.8ZM4232.51 1731.8L4231.56 1732.12L4231.8 1732.83L4232.55 1732.8L4232.51 1731.8ZM4232.51 1694.17L4232.43 1693.17L4231.81 1693.23L4231.58 1693.8L4232.51 1694.17ZM4292.57 1687.76L4292.71 1688.75L4292.72 1688.75L4292.74 1688.75L4292.57 1687.76ZM4400.68 1653.33L4401.31 1654.1L4401.32 1654.09L4401.33 1654.08L4400.68 1653.33ZM4418.29 1617.29L4417.29 1617.27L4417.29 1617.28V1617.29H4418.29ZM4426.3 1184.07L4427.3 1184.08L4427.31 1183.1L4426.33 1183.07L4426.3 1184.07ZM3861.75 1182.47L3861.73 1181.47L3860.75 1181.49V1182.47H3861.75ZM3870.56 1617.29L3869.56 1617.33L3869.56 1617.33L3870.56 1617.29ZM3888.98 1653.33L3888.32 1654.08L3888.33 1654.09L3888.34 1654.1L3888.98 1653.33ZM3939.43 1675.75L3939.19 1676.72L3939.19 1676.72L3939.43 1675.75ZM3995.48 1687.76L3995.3 1688.75L3995.32 1688.75L3995.34 1688.75L3995.48 1687.76ZM4055.54 1694.17L4056.52 1693.97L4056.37 1693.24L4055.63 1693.17L4055.54 1694.17ZM4055.54 1731.8L4055.5 1732.8L4056.25 1732.83L4056.49 1732.12L4055.54 1731.8ZM3498.2 1731.8L3497.25 1732.12L3497.48 1732.83L3498.23 1732.8L3498.2 1731.8ZM3498.2 1694.17L3498.11 1693.17L3497.5 1693.23L3497.27 1693.8L3498.2 1694.17ZM3557.45 1687.76L3557.59 1688.75L3557.61 1688.75L3557.62 1688.75L3557.45 1687.76ZM3613.51 1675.75L3613.28 1674.78L3613.27 1674.78L3613.51 1675.75ZM3664.76 1653.33L3665.39 1654.1L3665.4 1654.09L3665.41 1654.08L3664.76 1653.33ZM3683.18 1617.29L3684.18 1617.33L3684.18 1617.33L3683.18 1617.29ZM3684.78 664.363L3683.78 664.402L3683.78 664.406L3684.78 664.363ZM3666.36 629.129L3665.71 629.886L3665.72 629.894L3665.73 629.903L3666.36 629.129ZM3615.11 605.906L3614.87 606.878L3614.88 606.879L3615.11 605.906ZM3559.05 594.695L3558.88 595.68L3558.9 595.683L3558.92 595.686L3559.05 594.695ZM3499.8 587.488L3498.82 587.705L3498.98 588.421L3499.71 588.485L3499.8 587.488ZM3499.8 549.852L3499.76 550.851C3619.35 555.122 3712.25 557.258 3778.47 557.258V556.258V555.258C3712.29 555.258 3619.41 553.123 3499.83 548.852L3499.8 549.852ZM3778.47 556.258V557.258C3844.68 557.258 3937.59 555.122 4057.18 550.851L4057.14 549.852L4057.1 548.852C3937.53 553.123 3844.65 555.258 3778.47 555.258V556.258ZM4057.14 549.852L4056.17 550.094C4058.31 558.649 4059.34 564.406 4059.34 567.469H4060.34H4061.34C4061.34 564.125 4060.24 558.138 4058.11 549.609L4057.14 549.852ZM4060.34 567.469H4059.34C4059.34 571.081 4058.3 577.654 4056.16 587.271L4057.14 587.488L4058.12 587.705C4060.25 578.104 4061.34 571.33 4061.34 567.469H4060.34ZM4057.14 587.488L4057.05 586.492C4032.48 588.629 4012.43 591.034 3996.91 593.71L3997.08 594.695L3997.25 595.681C4012.7 593.018 4032.68 590.619 4057.23 588.485L4057.14 587.488ZM3997.08 594.695L3996.94 593.705C3981.95 595.847 3963.23 599.591 3940.8 604.933L3941.03 605.906L3941.26 606.879C3963.66 601.544 3982.32 597.815 3997.22 595.685L3997.08 594.695ZM3941.03 605.906L3940.79 604.935C3918.81 610.295 3901.83 618.089 3889.92 628.372L3890.58 629.129L3891.23 629.886C3902.81 619.882 3919.47 612.195 3941.26 606.878L3941.03 605.906ZM3890.58 629.129L3889.94 628.355C3878 638.127 3871.71 650.13 3871.16 664.325L3872.16 664.363L3873.16 664.402C3873.68 650.836 3879.67 639.35 3891.21 629.903L3890.58 629.129ZM3872.16 664.363L3871.16 664.32C3864.22 823.954 3860.75 972.648 3860.75 1110.4H3861.75H3862.75C3862.75 972.681 3866.22 824.017 3873.16 664.407L3872.16 664.363ZM3861.75 1110.4L3861.71 1111.4C3920.99 1113.53 4010.69 1114.6 4130.81 1114.6V1113.6V1112.6C4010.7 1112.6 3921.03 1111.53 3861.79 1109.4L3861.75 1110.4ZM4130.81 1113.6V1114.6C4229.05 1114.6 4327.56 1113 4426.33 1109.8L4426.3 1108.8L4426.27 1107.8C4327.52 1111 4229.03 1112.6 4130.81 1112.6V1113.6ZM4426.3 1108.8L4427.3 1108.79C4425.17 910.191 4422.5 762.037 4419.29 664.331L4418.29 664.363L4417.29 664.396C4420.5 762.08 4423.17 910.215 4425.3 1108.81L4426.3 1108.8ZM4418.29 664.363L4419.29 664.325C4418.75 650.13 4412.45 638.127 4400.51 628.355L4399.88 629.129L4399.24 629.903C4410.79 639.35 4416.77 650.836 4417.29 664.402L4418.29 664.363ZM4399.88 629.129L4400.53 628.372C4388.62 618.086 4371.36 610.293 4348.86 604.933L4348.62 605.906L4348.39 606.879C4370.73 612.197 4387.64 619.886 4399.22 629.886L4399.88 629.129ZM4348.62 605.906L4348.86 604.933C4326.42 599.591 4307.43 595.846 4291.91 593.705L4291.77 594.695L4291.63 595.686C4307.07 597.815 4325.99 601.545 4348.39 606.879L4348.62 605.906ZM4291.77 594.695L4291.95 593.711C4276.96 591.034 4257.17 588.629 4232.6 586.492L4232.51 587.488L4232.43 588.485C4256.97 590.619 4276.69 593.018 4291.59 595.68L4291.77 594.695ZM4232.51 587.488L4233.49 587.271C4231.35 577.654 4230.31 571.081 4230.31 567.469H4229.31H4228.31C4228.31 571.33 4229.4 578.104 4231.54 587.705L4232.51 587.488ZM4229.31 567.469H4230.31C4230.31 564.406 4231.34 558.649 4233.48 550.094L4232.51 549.852L4231.54 549.609C4229.41 558.138 4228.31 564.125 4228.31 567.469H4229.31ZM4232.51 549.852L4232.48 550.851C4353.13 555.122 4446.04 557.258 4511.18 557.258V556.258V555.258C4446.07 555.258 4353.19 553.123 4232.55 548.852L4232.51 549.852ZM4511.18 556.258V557.258C4576.87 557.258 4670.04 555.122 4790.69 550.851L4790.66 549.852L4790.62 548.852C4669.97 553.123 4576.83 555.258 4511.18 555.258V556.258ZM4790.66 549.852L4789.69 550.094C4791.82 558.649 4792.86 564.406 4792.86 567.469H4793.86H4794.86C4794.86 564.125 4793.76 558.138 4791.63 549.609L4790.66 549.852ZM4793.86 567.469H4792.86C4792.86 571.081 4791.82 577.654 4789.68 587.271L4790.66 587.488L4791.63 587.705C4793.77 578.104 4794.86 571.33 4794.86 567.469H4793.86ZM4790.66 587.488L4790.57 586.492C4766 588.629 4745.95 591.034 4730.43 593.71L4730.6 594.695L4730.77 595.681C4746.21 593.018 4766.2 590.619 4790.74 588.485L4790.66 587.488ZM4730.6 594.695L4730.46 593.705C4715.47 595.847 4696.75 599.591 4674.31 604.933L4674.54 605.906L4674.77 606.879C4697.18 601.544 4715.83 597.815 4730.74 595.685L4730.6 594.695ZM4674.54 605.906L4674.31 604.933C4651.8 610.293 4634.55 618.086 4622.64 628.372L4623.29 629.129L4623.95 629.886C4635.53 619.886 4652.44 612.197 4674.77 606.879L4674.54 605.906ZM4623.29 629.129L4622.66 628.355C4610.72 638.127 4604.42 650.13 4603.88 664.325L4604.88 664.363L4605.87 664.402C4606.4 650.836 4612.38 639.35 4623.93 629.903L4623.29 629.129ZM4604.88 664.363L4603.88 664.323C4598.54 797.27 4595.87 956.373 4595.87 1141.63H4596.87H4597.87C4597.87 956.39 4600.54 797.316 4605.87 664.403L4604.88 664.363ZM4596.87 1141.63H4595.87C4595.87 1325.82 4598.54 1484.39 4603.88 1617.33L4604.88 1617.29L4605.87 1617.25C4600.54 1484.34 4597.87 1325.8 4597.87 1141.63H4596.87ZM4604.88 1617.29L4603.88 1617.33C4604.42 1631.52 4610.71 1643.78 4622.64 1654.08L4623.29 1653.33L4623.95 1652.57C4612.38 1642.59 4606.4 1630.82 4605.87 1617.25L4604.88 1617.29ZM4623.29 1653.33L4622.66 1654.1C4634.57 1663.84 4651.81 1671.37 4674.31 1676.72L4674.54 1675.75L4674.77 1674.78C4652.43 1669.46 4635.51 1662.03 4623.93 1652.55L4623.29 1653.33ZM4674.54 1675.75L4674.31 1676.72C4696.74 1682.06 4715.45 1686.07 4730.42 1688.75L4730.6 1687.76L4730.77 1686.78C4715.85 1684.11 4697.19 1680.11 4674.77 1674.78L4674.54 1675.75ZM4730.6 1687.76L4730.46 1688.75C4745.97 1690.89 4766 1693.03 4790.57 1695.16L4790.66 1694.17L4790.74 1693.17C4766.19 1691.04 4746.19 1688.9 4730.73 1686.77L4730.6 1687.76ZM4790.66 1694.17L4789.69 1694.41C4791.81 1702.91 4792.86 1710.03 4792.86 1715.79H4793.86H4794.86C4794.86 1709.81 4793.77 1702.51 4791.63 1693.93L4790.66 1694.17ZM4793.86 1715.79H4792.86C4792.86 1719.91 4791.83 1725.13 4789.71 1731.49L4790.66 1731.8L4791.6 1732.12C4793.76 1725.66 4794.86 1720.21 4794.86 1715.79H4793.86ZM4790.66 1731.8L4790.69 1730.81C4699.92 1727.6 4606.75 1726 4511.18 1726V1727V1728C4606.73 1728 4699.88 1729.6 4790.62 1732.8L4790.66 1731.8ZM4511.18 1727V1726C4415.61 1726 4322.71 1727.6 4232.48 1730.81L4232.51 1731.8L4232.55 1732.8C4322.76 1729.6 4415.63 1728 4511.18 1728V1727ZM4232.51 1731.8L4233.46 1731.49C4231.34 1725.13 4230.31 1719.91 4230.31 1715.79H4229.31H4228.31C4228.31 1720.21 4229.41 1725.66 4231.56 1732.12L4232.51 1731.8ZM4229.31 1715.79H4230.31C4230.31 1706.78 4231.37 1699.71 4233.44 1694.54L4232.51 1694.17L4231.58 1693.8C4229.38 1699.3 4228.31 1706.65 4228.31 1715.79H4229.31ZM4232.51 1694.17L4232.6 1695.16C4257.16 1693.03 4277.2 1690.89 4292.71 1688.75L4292.57 1687.76L4292.43 1686.77C4276.98 1688.9 4256.97 1691.04 4232.43 1693.17L4232.51 1694.17ZM4292.57 1687.76L4292.74 1688.75C4308.25 1686.07 4327.22 1682.06 4349.66 1676.72L4349.43 1675.75L4349.19 1674.78C4326.78 1680.11 4307.85 1684.11 4292.4 1686.78L4292.57 1687.76ZM4349.43 1675.75L4349.66 1676.72C4372.16 1671.37 4389.4 1663.84 4401.31 1654.1L4400.68 1653.33L4400.04 1652.55C4388.46 1662.03 4371.54 1669.46 4349.19 1674.78L4349.43 1675.75ZM4400.68 1653.33L4401.33 1654.08C4413.27 1643.78 4419.29 1631.5 4419.29 1617.29H4418.29H4417.29C4417.29 1630.85 4411.58 1642.59 4400.02 1652.57L4400.68 1653.33ZM4418.29 1617.29L4419.29 1617.32C4423.56 1426.73 4426.23 1282.32 4427.3 1184.08L4426.3 1184.07L4425.3 1184.06C4424.23 1282.28 4421.56 1426.69 4417.29 1617.27L4418.29 1617.29ZM4426.3 1184.07L4426.33 1183.07C4327.56 1179.87 4229.05 1178.27 4130.81 1178.27V1179.27V1180.27C4229.03 1180.27 4327.52 1181.87 4426.27 1185.07L4426.3 1184.07ZM4130.81 1179.27V1178.27C4069.94 1178.27 3980.25 1179.33 3861.73 1181.47L3861.75 1182.47L3861.77 1183.47C3980.28 1181.33 4069.96 1180.27 4130.81 1180.27V1179.27ZM3861.75 1182.47H3860.75C3860.75 1296.2 3863.69 1441.15 3869.56 1617.33L3870.56 1617.29L3871.56 1617.26C3865.69 1441.09 3862.75 1296.16 3862.75 1182.47H3861.75ZM3870.56 1617.29L3869.56 1617.33C3870.11 1631.52 3876.4 1643.78 3888.32 1654.08L3888.98 1653.33L3889.63 1652.57C3878.07 1642.59 3872.08 1630.82 3871.56 1617.25L3870.56 1617.29ZM3888.98 1653.33L3888.34 1654.1C3900.25 1663.84 3917.22 1671.36 3939.19 1676.72L3939.43 1675.75L3939.66 1674.78C3917.86 1669.46 3901.2 1662.03 3889.61 1652.55L3888.98 1653.33ZM3939.43 1675.75L3939.19 1676.72C3961.63 1682.06 3980.33 1686.07 3995.3 1688.75L3995.48 1687.76L3995.66 1686.78C3980.73 1684.11 3962.07 1680.11 3939.66 1674.78L3939.43 1675.75ZM3995.48 1687.76L3995.34 1688.75C4010.85 1690.89 4030.89 1693.03 4055.45 1695.16L4055.54 1694.17L4055.63 1693.17C4031.08 1691.04 4011.08 1688.9 3995.62 1686.77L3995.48 1687.76ZM4055.54 1694.17L4054.56 1694.36C4056.7 1705.06 4057.74 1712.17 4057.74 1715.79H4058.74H4059.74C4059.74 1711.94 4058.65 1704.63 4056.52 1693.97L4055.54 1694.17ZM4058.74 1715.79H4057.74C4057.74 1719.91 4056.71 1725.13 4054.59 1731.49L4055.54 1731.8L4056.49 1732.12C4058.64 1725.66 4059.74 1720.21 4059.74 1715.79H4058.74ZM4055.54 1731.8L4055.57 1730.81C3964.81 1727.6 3871.9 1726 3776.87 1726V1727V1728C3871.88 1728 3964.76 1729.6 4055.5 1732.8L4055.54 1731.8ZM3776.87 1727V1726C3680.76 1726 3587.86 1727.6 3498.16 1730.81L3498.2 1731.8L3498.23 1732.8C3587.91 1729.6 3680.78 1728 3776.87 1728V1727ZM3498.2 1731.8L3499.14 1731.49C3497.03 1725.13 3495.99 1719.91 3495.99 1715.79H3494.99H3493.99C3493.99 1720.21 3495.09 1725.66 3497.25 1732.12L3498.2 1731.8ZM3494.99 1715.79H3495.99C3495.99 1706.78 3497.05 1699.71 3499.12 1694.54L3498.2 1694.17L3497.27 1693.8C3495.06 1699.3 3493.99 1706.65 3493.99 1715.79H3494.99ZM3498.2 1694.17L3498.28 1695.16C3522.85 1693.03 3542.62 1690.89 3557.59 1688.75L3557.45 1687.76L3557.31 1686.77C3542.39 1688.9 3522.66 1691.04 3498.11 1693.17L3498.2 1694.17ZM3557.45 1687.76L3557.62 1688.75C3573.13 1686.07 3591.84 1682.06 3613.74 1676.72L3613.51 1675.75L3613.27 1674.78C3591.4 1680.11 3572.74 1684.11 3557.28 1686.78L3557.45 1687.76ZM3613.51 1675.75L3613.74 1676.72C3636.24 1671.37 3653.48 1663.84 3665.39 1654.1L3664.76 1653.33L3664.12 1652.55C3652.54 1662.03 3635.62 1669.46 3613.28 1674.78L3613.51 1675.75ZM3664.76 1653.33L3665.41 1654.08C3677.34 1643.78 3683.63 1631.52 3684.18 1617.33L3683.18 1617.29L3682.18 1617.25C3681.65 1630.82 3675.67 1642.59 3664.1 1652.57L3664.76 1653.33ZM3683.18 1617.29L3684.18 1617.33C3690.58 1450.22 3693.79 1281.78 3693.79 1112H3692.79H3691.79C3691.79 1281.75 3688.58 1450.17 3682.18 1617.25L3683.18 1617.29ZM3692.79 1112H3693.79C3693.79 939.022 3691.12 789.795 3685.78 664.321L3684.78 664.363L3683.78 664.406C3689.12 789.843 3691.79 939.041 3691.79 1112H3692.79ZM3684.78 664.363L3685.78 664.325C3685.23 650.13 3678.94 638.127 3666.99 628.355L3666.36 629.129L3665.73 629.903C3677.27 639.35 3683.26 650.836 3683.78 664.402L3684.78 664.363ZM3666.36 629.129L3667.01 628.372C3655.1 618.086 3637.85 610.293 3615.34 604.933L3615.11 605.906L3614.88 606.879C3637.21 612.197 3654.13 619.886 3665.71 629.886L3666.36 629.129ZM3615.11 605.906L3615.35 604.935C3593.44 599.591 3574.72 595.846 3559.19 593.705L3559.05 594.695L3558.92 595.686C3574.35 597.815 3593 601.544 3614.87 606.878L3615.11 605.906ZM3559.05 594.695L3559.23 593.711C3544.24 591.034 3524.45 588.629 3499.88 586.492L3499.8 587.488L3499.71 588.485C3524.25 590.619 3543.97 593.018 3558.88 595.68L3559.05 594.695ZM3499.8 587.488L3500.77 587.271C3498.64 577.654 3497.59 571.081 3497.59 567.469H3496.59H3495.59C3495.59 571.33 3496.69 578.104 3498.82 587.705L3499.8 587.488ZM3496.59 567.469H3497.59C3497.59 562.262 3498.64 556.498 3500.75 550.168L3499.8 549.852L3498.85 549.535C3496.69 556.018 3495.59 561.999 3495.59 567.469H3496.59Z" fill="black" mask="url(#path-14-outside-1_4015_46)"/>
</svg>
