<svg width="1360" height="1760" viewBox="0 0 1360 1760" fill="none" xmlns="http://www.w3.org/2000/svg">
<path d="M198.43 1603.76H314.313V1076.94L1046.2 1322.31V1603.76H1161.53V1361.25L1359.96 1428.52V1672.38C1359.96 1720.74 1320.91 1760 1272.81 1760H934.923C886.824 1760 847.773 1720.74 847.773 1672.38V1455.89L512.743 1367.24V1672.38C512.743 1720.74 473.692 1760 425.593 1760H87.1505C39.051 1760 0 1720.74 0 1672.38V643.961L0.238106 644.041L0.873097 644.28L30.9552 654.334L649.263 861.328L1158.59 1031.93L1161.53 1032.89V156.242H1045.89V877.766L0.238106 527.697L0 527.617V87.6169C0 39.26 39.051 0 87.1505 0H425.117C473.295 0 512.267 39.26 512.267 87.6169V365.629L313.837 303.547V156.242H198.43V382.786L847.455 590.018V87.6169C847.455 39.26 886.427 0 934.526 0H1272.81C1320.91 0 1359.96 39.26 1359.96 87.6169V1311.46L812.294 1127.37L198.43 921.255V1603.76Z" fill="#151F36"/>
<path d="M1359.96 1428.52V1672.38C1359.96 1720.74 1320.91 1760 1272.81 1760H934.923C886.824 1760 847.773 1720.74 847.773 1672.38V1455.89L512.743 1367.24V1672.38C512.743 1720.74 473.692 1760 425.593 1760H87.1505C39.051 1760 0 1720.74 0 1672.38V857.577L198.43 921.494V1603.76H314.313V1076.94L1046.2 1322.31V1603.76H1161.53V1361.26L1359.96 1428.52Z" fill="#151F36"/>
<g opacity="0.7">
<path opacity="0.6" d="M483.654 1359.34L512.783 1367.08V1672.38C512.783 1704.62 495.401 1732.87 469.525 1748.03C478.494 1734.31 483.654 1717.95 483.654 1700.31V1359.34Z" fill="white"/>
<path d="M1360 87.6169V1311.46L1330.24 1301.49V117.541C1330.24 69.1839 1291.18 29.9238 1243.08 29.9238H904.801C888.451 29.9238 873.132 34.4722 860.035 42.3721C875.275 16.9967 902.896 0 934.566 0H1272.85C1320.95 0 1360 39.26 1360 87.6169Z" fill="white"/>
<path d="M512.307 87.6169V365.629L483.257 356.532V115.546C483.257 67.1889 444.206 27.9289 396.106 27.9289H58.0607C42.0275 27.9289 27.0262 32.3177 14.168 39.8984C29.6455 15.8796 56.632 0 87.1902 0H425.156C473.335 0 512.307 39.26 512.307 87.6169Z" fill="white"/>
<path d="M847.495 590.018V626.804L169.34 410.714V155.971H198.47V382.785L845.352 589.3L847.495 590.018Z" fill="white"/>
<path d="M1161.73 1033.13V1069.92L0.0400391 681.625V643.961L0.278146 644.041V644.52L0.913136 644.28L30.9951 654.335L649.303 861.328L1158.63 1031.93L1161.73 1033.13Z" fill="white"/>
<path opacity="0.6" d="M1160.14 1603.76V1631.69H1017.11V1350.24L314.353 1105.35V1076.94L1046.24 1322.31V1603.76H1160.14Z" fill="white"/>
<path d="M1045.92 877.766L1016.8 868.031V155.676H1045.92V877.766Z" fill="white"/>
<path opacity="0.6" d="M198.47 1603.76H312.924V1631.69H169.34V911.839L198.47 921.494V1603.76Z" fill="white"/>
<path opacity="0.6" d="M1360 1428.52V1672.38C1360 1704.62 1342.62 1732.79 1316.82 1747.95C1325.71 1734.23 1330.87 1717.87 1330.87 1700.31V1449.22L1161.57 1389.74V1361.25L1360 1428.52Z" fill="white"/>
</g>
<path d="M314.353 1105.35V1603.76H312.924V1104.87L314.353 1105.35Z" fill="white"/>
<path d="M1161.57 1389.74V1603.76H1160.14V1389.18L1161.57 1389.74Z" fill="white"/>
</svg>
