<svg width="5072" height="1805" viewBox="0 0 5072 1805" fill="none" xmlns="http://www.w3.org/2000/svg">
<path d="M198.43 1603.76H314.313V1076.94L1046.2 1322.31V1603.76H1161.53V1361.26L1359.96 1428.52V1672.38C1359.96 1720.74 1320.91 1760 1272.81 1760H934.923C886.824 1760 847.773 1720.74 847.773 1672.38V1455.89L512.743 1367.24V1672.38C512.743 1720.74 473.692 1760 425.593 1760H87.1505C39.051 1760 0 1720.74 0 1672.38V643.961L0.238106 644.041L0.873097 644.28L30.9552 654.334L649.263 861.328L1158.59 1031.93L1161.53 1032.89V156.242H1045.89V877.766L0.238106 527.697L0 527.617V87.6169C0 39.26 39.051 0 87.1505 0H425.117C473.295 0 512.267 39.26 512.267 87.6169V365.629L313.837 303.547V156.242H198.43V382.786L847.455 590.018V87.6169C847.455 39.26 886.427 0 934.526 0H1272.81C1320.91 0 1359.96 39.26 1359.96 87.6169V1311.46L812.294 1127.37L198.43 921.255V1603.76Z" fill="#151F36"/>
<path d="M1359.96 1428.52V1672.38C1359.96 1720.74 1320.91 1760 1272.81 1760H934.923C886.824 1760 847.773 1720.74 847.773 1672.38V1455.89L512.743 1367.24V1672.38C512.743 1720.74 473.692 1760 425.593 1760H87.1505C39.051 1760 0 1720.74 0 1672.38V857.577L198.43 921.494V1603.76H314.313V1076.94L1046.2 1322.31V1603.76H1161.53V1361.26L1359.96 1428.52Z" fill="#151F36"/>
<g opacity="0.7">
<path opacity="0.6" d="M483.654 1359.34L512.783 1367.08V1672.38C512.783 1704.62 495.401 1732.87 469.525 1748.03C478.494 1734.31 483.654 1717.95 483.654 1700.31V1359.34Z" fill="white"/>
<path d="M1360 87.6169V1311.46L1330.24 1301.49V117.541C1330.24 69.1839 1291.18 29.9238 1243.08 29.9238H904.801C888.45 29.9238 873.132 34.4722 860.035 42.3721C875.275 16.9967 902.896 0 934.566 0H1272.85C1320.95 0 1360 39.26 1360 87.6169Z" fill="white"/>
<path d="M512.307 87.6169V365.629L483.257 356.532V115.546C483.257 67.1889 444.206 27.9289 396.106 27.9289H58.0607C42.0275 27.9289 27.0262 32.3177 14.168 39.8984C29.6455 15.8796 56.632 0 87.1902 0H425.156C473.335 0 512.307 39.26 512.307 87.6169Z" fill="white"/>
<path d="M847.495 590.018V626.804L169.34 410.714V155.971H198.47V382.785L845.352 589.3L847.495 590.018Z" fill="white"/>
<path d="M1161.73 1033.13V1069.92L0.0400391 681.625V643.961L0.278146 644.041V644.52L0.913136 644.28L30.9951 654.335L649.303 861.328L1158.63 1031.93L1161.73 1033.13Z" fill="white"/>
<path opacity="0.6" d="M1160.14 1603.76V1631.69H1017.11V1350.24L314.353 1105.35V1076.94L1046.24 1322.31V1603.76H1160.14Z" fill="white"/>
<path d="M1045.92 877.766L1016.79 868.031V155.676H1045.92V877.766Z" fill="white"/>
<path opacity="0.6" d="M198.47 1603.76H312.924V1631.69H169.34V911.839L198.47 921.494V1603.76Z" fill="white"/>
<path opacity="0.6" d="M1360 1428.52V1672.38C1360 1704.62 1342.62 1732.79 1316.82 1747.95C1325.71 1734.23 1330.87 1717.87 1330.87 1700.31V1449.22L1161.57 1389.74V1361.25L1360 1428.52Z" fill="white"/>
</g>
<path d="M314.353 1105.35V1603.76H312.924V1104.87L314.353 1105.35Z" fill="white"/>
<path d="M1161.57 1389.74V1603.76H1160.14V1389.18L1161.57 1389.74Z" fill="white"/>
<mask id="path-14-outside-1_4013_3" maskUnits="userSpaceOnUse" x="1409" y="535" width="3571" height="1254" fill="black">
<rect fill="white" x="1409" y="535" width="3571" height="1254"/>
<path d="M1782.81 1638.29C1778.54 1415.14 1776.41 1246.71 1776.41 1133C1776.41 1001.67 1779.08 852.46 1784.41 685.363C1785.48 644.79 1874.64 619.165 2051.88 608.488C2055.08 598.345 2055.08 585.799 2051.88 570.852C1912.01 575.122 1802.83 577.258 1724.36 577.258C1658.69 577.258 1565.53 575.122 1444.88 570.852C1440.61 580.461 1440.61 593.007 1444.88 608.488C1567.67 620.233 1629.6 645.858 1630.66 685.363C1636 810.819 1638.67 960.031 1638.67 1133C1638.67 1302.23 1635.47 1470.66 1629.06 1638.29C1627.99 1677.8 1566.07 1703.42 1443.28 1715.17C1439.01 1723.71 1439.01 1736.26 1443.28 1752.8C1534.04 1749.6 1627.19 1748 1722.75 1748C1836.46 1748 1945.64 1749.6 2050.27 1752.8C2054.54 1744.26 2054.54 1731.72 2050.27 1715.17C1873.03 1704.49 1783.88 1678.87 1782.81 1638.29ZM1419.26 639.719C1410.18 604.484 1411.25 570.051 1422.46 536.418C1469.44 536.418 1532.97 537.753 1613.05 540.422C1693.66 543.091 1749.71 544.426 1781.21 544.426C1804.17 544.426 1848.48 543.892 1914.14 542.824C1979.8 541.757 2036.66 541.223 2084.71 541.223C2094.85 571.652 2095.38 604.484 2086.31 639.719C1968.33 651.464 1908.8 667.212 1907.73 686.965C1901.33 820.428 1898.12 988.859 1898.12 1192.26C1898.12 1388.72 1900.79 1536.86 1906.13 1636.69C1906.13 1639.89 1907.47 1643.1 1910.14 1646.3C1912.81 1649.5 1916.54 1652.17 1921.35 1654.31C1926.69 1656.44 1932.02 1658.85 1937.36 1661.52C1942.7 1663.65 1949.91 1665.79 1958.98 1667.92C1968.59 1670.06 1976.6 1671.93 1983.01 1673.53C1989.41 1675.13 1997.96 1676.73 2008.63 1678.33C2019.84 1679.93 2028.65 1681.27 2035.06 1682.34C2042 1683.4 2051.07 1684.47 2062.29 1685.54C2074.03 1686.61 2082.04 1687.67 2086.31 1688.74C2095.38 1718.64 2093.78 1751.47 2081.5 1787.24C1884.51 1782.97 1764.93 1780.83 1722.75 1780.83C1693.93 1780.83 1593.29 1782.97 1420.86 1787.24C1407.51 1750.4 1407.51 1715.97 1420.86 1683.94C1536.71 1672.19 1595.16 1656.44 1596.23 1636.69C1602.64 1503.23 1605.84 1335.33 1605.84 1133C1605.84 961.099 1603.17 812.421 1597.83 686.965C1596.76 667.212 1537.24 651.464 1419.26 639.719ZM2192.81 937.609C2152.24 921.594 2125.55 900.773 2112.73 875.148C2143.16 817.492 2163.45 778.788 2173.59 759.035C2184.27 739.283 2196.28 709.12 2209.63 668.547C2223.51 627.44 2233.12 586.066 2238.46 544.426H2793.4H3460.45C3473.8 649.061 3515.44 759.302 3585.37 875.148C3573.09 900.773 3544.53 921.594 3499.69 937.609C3455.91 858.065 3391.32 791.867 3305.9 739.016C3221.02 685.63 3110.77 658.938 2975.18 658.938C2970.9 791.333 2968.77 948.286 2968.77 1129.8C2968.77 1361.49 2971.44 1530.45 2976.78 1636.69C2977.85 1656.44 3037.37 1672.19 3155.35 1683.94C3164.43 1718.1 3163.36 1752.54 3152.15 1787.24C2979.18 1782.97 2878.55 1780.83 2850.25 1780.83C2807.55 1780.83 2687.96 1782.97 2491.5 1787.24C2478.16 1750.4 2478.16 1715.97 2491.5 1683.94C2607.35 1672.19 2665.81 1656.98 2666.88 1638.29C2672.21 1503.76 2674.88 1334.26 2674.88 1129.8C2674.88 958.964 2672.75 803.612 2668.48 663.742C2446.39 692.57 2287.84 783.859 2192.81 937.609ZM2419.43 630.91L2699.71 622.902C2705.05 800.142 2707.71 969.107 2707.71 1129.8C2707.71 1336.4 2705.05 1505.9 2699.71 1638.29C2698.64 1677.8 2636.71 1703.42 2513.93 1715.17C2509.65 1723.71 2509.65 1736.26 2513.93 1752.8C2604.68 1749.6 2697.84 1748 2793.4 1748C2907.11 1748 3016.28 1749.6 3120.92 1752.8C3125.19 1743.2 3125.19 1730.65 3120.92 1715.17C2943.68 1704.49 2854.52 1678.87 2853.46 1638.29C2848.12 1461.05 2845.45 1291.55 2845.45 1129.8C2845.45 924.263 2848.12 755.298 2853.46 622.902L2976.78 626.105C3242.64 632.512 3422.01 722.733 3514.9 896.77C3528.78 891.431 3537.86 884.224 3542.13 875.148C3488.74 766.242 3428.95 689.367 3362.75 644.523C3296.56 599.68 3198.06 577.258 3067.27 577.258H2793.4C2735.21 577.258 2647.39 576.991 2529.94 576.457C2412.49 575.923 2325.21 575.656 2268.09 575.656C2265.95 593.807 2262.21 612.759 2256.88 632.512C2251.54 652.264 2246.46 669.081 2241.66 682.961C2237.39 696.307 2229.92 714.191 2219.24 736.613C2209.1 759.035 2202.15 774.25 2198.42 782.258C2194.68 789.732 2186.14 806.281 2172.79 831.906C2159.98 857.531 2152.51 871.945 2150.37 875.148C2154.64 884.224 2163.98 891.431 2178.4 896.77C2216.3 834.309 2245.66 788.13 2266.48 758.234C2287.3 728.339 2311.86 699.777 2340.16 672.551C2368.98 644.79 2395.41 630.91 2419.43 630.91ZM4515.88 1638.29C4515.88 1677.8 4454.22 1703.42 4330.9 1715.17C4326.63 1723.71 4326.63 1736.26 4330.9 1752.8C4421.65 1749.6 4514.54 1748 4609.57 1748C4723.28 1748 4832.72 1749.6 4937.89 1752.8C4942.16 1743.2 4942.16 1730.65 4937.89 1715.17C4760.65 1704.49 4671.5 1678.87 4670.43 1638.29C4664.56 1505.9 4661.62 1347.34 4661.62 1162.63C4661.62 976.848 4664.56 817.759 4670.43 685.363C4671.5 644.79 4760.65 619.165 4937.89 608.488C4943.23 595.142 4943.23 582.596 4937.89 570.852C4797.49 575.122 4688.05 577.258 4609.57 577.258C4543.91 577.258 4451.02 575.122 4330.9 570.852C4327.7 583.664 4327.7 596.21 4330.9 608.488C4453.15 620.233 4514.81 645.858 4515.88 685.363C4519.08 783.592 4521.75 931.737 4523.89 1129.8C4425.66 1133 4332.77 1134.6 4245.21 1134.6C4098.94 1134.6 3992.97 1133.53 3927.3 1131.4C3927.3 952.023 3930.51 803.345 3936.91 685.363C3937.98 644.79 4027.14 619.165 4204.38 608.488C4207.58 598.345 4207.58 585.799 4204.38 570.852C4064.51 575.122 3955.07 577.258 3876.05 577.258C3810.92 577.258 3718.03 575.122 3597.38 570.852C3593.11 580.461 3593.11 593.007 3597.38 608.488C3720.17 620.233 3782.1 645.858 3783.16 685.363C3788.5 810.819 3791.17 960.031 3791.17 1133C3791.17 1302.23 3787.97 1470.66 3781.56 1638.29C3780.49 1677.8 3718.57 1703.42 3595.78 1715.17C3591.51 1723.71 3591.51 1736.26 3595.78 1752.8C3686.54 1749.6 3779.43 1748 3874.45 1748C3988.16 1748 4097.6 1749.6 4202.77 1752.8C4207.04 1744.26 4207.04 1731.72 4202.77 1715.17C4025.53 1704.49 3936.38 1678.87 3935.31 1638.29C3929.97 1477.6 3927.3 1327.32 3927.3 1187.45C4058.63 1184.78 4164.6 1183.45 4245.21 1183.45C4332.77 1183.45 4425.66 1185.32 4523.89 1189.05C4522.82 1308.1 4520.15 1457.85 4515.88 1638.29ZM4483.05 1638.29C4487.32 1425.82 4489.99 1291.82 4491.05 1236.3C4386.42 1234.17 4304.47 1233.1 4245.21 1233.1C4199.3 1233.1 4156.33 1233.36 4116.29 1233.9C4076.78 1234.43 4054.9 1234.7 4050.62 1234.7C4050.62 1358.02 4053.29 1492.02 4058.63 1636.69C4058.63 1639.89 4059.7 1643.1 4061.84 1646.3C4063.97 1649.5 4067.71 1652.17 4073.05 1654.31C4078.39 1656.44 4083.72 1658.85 4089.06 1661.52C4094.93 1663.65 4102.14 1665.79 4110.68 1667.92C4119.76 1670.06 4127.77 1671.93 4134.71 1673.53C4141.65 1675.13 4150.46 1676.73 4161.13 1678.33C4172.34 1679.93 4181.15 1681.27 4187.56 1682.34C4194.5 1683.4 4203.57 1684.47 4214.79 1685.54C4226.53 1686.61 4234.54 1687.67 4238.81 1688.74C4247.35 1718.64 4245.75 1751.47 4234 1787.24C4037.01 1782.97 3917.16 1780.83 3874.45 1780.83C3846.16 1780.83 3745.79 1782.97 3573.36 1787.24C3560.01 1750.4 3560.01 1715.97 3573.36 1683.94C3689.21 1672.19 3747.66 1656.44 3748.73 1636.69C3755.14 1469.06 3758.34 1301.16 3758.34 1133C3758.34 961.099 3755.67 812.421 3750.33 686.965C3749.26 667.212 3689.74 651.464 3571.76 639.719C3562.68 605.552 3563.75 571.118 3574.96 536.418C3621.94 536.418 3685.47 537.753 3765.55 540.422C3846.16 543.091 3902.21 544.426 3933.71 544.426C3956.67 544.426 4000.98 543.892 4066.64 542.824C4132.3 541.757 4189.16 541.223 4237.21 541.223C4246.82 571.652 4247.35 604.484 4238.81 639.719C4120.83 651.464 4061.3 667.212 4060.23 686.965C4053.83 834.309 4050.62 972.043 4050.62 1100.17C4101.88 1103.37 4166.74 1103.9 4245.21 1101.77L4491.05 1098.57C4488.92 924.53 4486.25 787.329 4483.05 686.965C4481.98 667.212 4422.45 651.464 4304.47 639.719C4294.86 602.349 4295.93 567.915 4307.68 536.418C4385.08 541.757 4489.99 544.426 4622.38 544.426C4647.47 544.426 4698.46 543.892 4775.33 542.824C4852.74 541.757 4917.6 541.223 4969.92 541.223C4980.07 571.652 4980.87 604.484 4972.32 639.719C4853.81 651.464 4794.02 667.212 4792.95 686.965C4787.61 819.361 4784.94 977.915 4784.94 1162.63C4784.94 1346.27 4787.61 1504.3 4792.95 1636.69C4794.02 1656.44 4853.81 1672.19 4972.32 1683.94C4980.87 1718.1 4979.53 1752.54 4968.32 1787.24C4795.89 1782.97 4695.52 1780.83 4667.23 1780.83C4624.52 1780.83 4504.67 1782.97 4307.68 1787.24C4294.86 1750.4 4294.86 1715.97 4307.68 1683.94C4424.59 1672.19 4483.05 1656.98 4483.05 1638.29Z"/>
</mask>
<path d="M1782.81 1638.29C1778.54 1415.14 1776.41 1246.71 1776.41 1133C1776.41 1001.67 1779.08 852.46 1784.41 685.363C1785.48 644.79 1874.64 619.165 2051.88 608.488C2055.08 598.345 2055.08 585.799 2051.88 570.852C1912.01 575.122 1802.83 577.258 1724.36 577.258C1658.69 577.258 1565.53 575.122 1444.88 570.852C1440.61 580.461 1440.61 593.007 1444.88 608.488C1567.67 620.233 1629.6 645.858 1630.66 685.363C1636 810.819 1638.67 960.031 1638.67 1133C1638.67 1302.23 1635.47 1470.66 1629.06 1638.29C1627.99 1677.8 1566.07 1703.42 1443.28 1715.17C1439.01 1723.71 1439.01 1736.26 1443.28 1752.8C1534.04 1749.6 1627.19 1748 1722.75 1748C1836.46 1748 1945.64 1749.6 2050.27 1752.8C2054.54 1744.26 2054.54 1731.72 2050.27 1715.17C1873.03 1704.49 1783.88 1678.87 1782.81 1638.29ZM1419.26 639.719C1410.18 604.484 1411.25 570.051 1422.46 536.418C1469.44 536.418 1532.97 537.753 1613.05 540.422C1693.66 543.091 1749.71 544.426 1781.21 544.426C1804.17 544.426 1848.48 543.892 1914.14 542.824C1979.8 541.757 2036.66 541.223 2084.71 541.223C2094.85 571.652 2095.38 604.484 2086.31 639.719C1968.33 651.464 1908.8 667.212 1907.73 686.965C1901.33 820.428 1898.12 988.859 1898.12 1192.26C1898.12 1388.72 1900.79 1536.86 1906.13 1636.69C1906.13 1639.89 1907.47 1643.1 1910.14 1646.3C1912.81 1649.5 1916.54 1652.17 1921.35 1654.31C1926.69 1656.44 1932.02 1658.85 1937.36 1661.52C1942.7 1663.65 1949.91 1665.79 1958.98 1667.92C1968.59 1670.06 1976.6 1671.93 1983.01 1673.53C1989.41 1675.13 1997.96 1676.73 2008.63 1678.33C2019.84 1679.93 2028.65 1681.27 2035.06 1682.34C2042 1683.4 2051.07 1684.47 2062.29 1685.54C2074.03 1686.61 2082.04 1687.67 2086.31 1688.74C2095.38 1718.64 2093.78 1751.47 2081.5 1787.24C1884.51 1782.97 1764.93 1780.83 1722.75 1780.83C1693.93 1780.83 1593.29 1782.97 1420.86 1787.24C1407.51 1750.4 1407.51 1715.97 1420.86 1683.94C1536.71 1672.19 1595.16 1656.44 1596.23 1636.69C1602.64 1503.23 1605.84 1335.33 1605.84 1133C1605.84 961.099 1603.17 812.421 1597.83 686.965C1596.76 667.212 1537.24 651.464 1419.26 639.719ZM2192.81 937.609C2152.24 921.594 2125.55 900.773 2112.73 875.148C2143.16 817.492 2163.45 778.788 2173.59 759.035C2184.27 739.283 2196.28 709.12 2209.63 668.547C2223.51 627.44 2233.12 586.066 2238.46 544.426H2793.4H3460.45C3473.8 649.061 3515.44 759.302 3585.37 875.148C3573.09 900.773 3544.53 921.594 3499.69 937.609C3455.91 858.065 3391.32 791.867 3305.9 739.016C3221.02 685.63 3110.77 658.938 2975.18 658.938C2970.9 791.333 2968.77 948.286 2968.77 1129.8C2968.77 1361.49 2971.44 1530.45 2976.78 1636.69C2977.85 1656.44 3037.37 1672.19 3155.35 1683.94C3164.43 1718.1 3163.36 1752.54 3152.15 1787.24C2979.18 1782.97 2878.55 1780.83 2850.25 1780.83C2807.55 1780.83 2687.96 1782.97 2491.5 1787.24C2478.16 1750.4 2478.16 1715.97 2491.5 1683.94C2607.35 1672.19 2665.81 1656.98 2666.88 1638.29C2672.21 1503.76 2674.88 1334.26 2674.88 1129.8C2674.88 958.964 2672.75 803.612 2668.48 663.742C2446.39 692.57 2287.84 783.859 2192.81 937.609ZM2419.43 630.91L2699.71 622.902C2705.05 800.142 2707.71 969.107 2707.71 1129.8C2707.71 1336.4 2705.05 1505.9 2699.71 1638.29C2698.64 1677.8 2636.71 1703.42 2513.93 1715.17C2509.65 1723.71 2509.65 1736.26 2513.93 1752.8C2604.68 1749.6 2697.84 1748 2793.4 1748C2907.11 1748 3016.28 1749.6 3120.92 1752.8C3125.19 1743.2 3125.19 1730.65 3120.92 1715.17C2943.68 1704.49 2854.52 1678.87 2853.46 1638.29C2848.12 1461.05 2845.45 1291.55 2845.45 1129.8C2845.45 924.263 2848.12 755.298 2853.46 622.902L2976.78 626.105C3242.64 632.512 3422.01 722.733 3514.9 896.77C3528.78 891.431 3537.86 884.224 3542.13 875.148C3488.74 766.242 3428.95 689.367 3362.75 644.523C3296.56 599.68 3198.06 577.258 3067.27 577.258H2793.4C2735.21 577.258 2647.39 576.991 2529.94 576.457C2412.49 575.923 2325.21 575.656 2268.09 575.656C2265.95 593.807 2262.21 612.759 2256.88 632.512C2251.54 652.264 2246.46 669.081 2241.66 682.961C2237.39 696.307 2229.92 714.191 2219.24 736.613C2209.1 759.035 2202.15 774.25 2198.42 782.258C2194.68 789.732 2186.14 806.281 2172.79 831.906C2159.98 857.531 2152.51 871.945 2150.37 875.148C2154.64 884.224 2163.98 891.431 2178.4 896.77C2216.3 834.309 2245.66 788.13 2266.48 758.234C2287.3 728.339 2311.86 699.777 2340.16 672.551C2368.98 644.79 2395.41 630.91 2419.43 630.91ZM4515.88 1638.29C4515.88 1677.8 4454.22 1703.42 4330.9 1715.17C4326.63 1723.71 4326.63 1736.26 4330.9 1752.8C4421.65 1749.6 4514.54 1748 4609.57 1748C4723.28 1748 4832.72 1749.6 4937.89 1752.8C4942.16 1743.2 4942.16 1730.65 4937.89 1715.17C4760.65 1704.49 4671.5 1678.87 4670.43 1638.29C4664.56 1505.9 4661.62 1347.34 4661.62 1162.63C4661.62 976.848 4664.56 817.759 4670.43 685.363C4671.5 644.79 4760.65 619.165 4937.89 608.488C4943.23 595.142 4943.23 582.596 4937.89 570.852C4797.49 575.122 4688.05 577.258 4609.57 577.258C4543.91 577.258 4451.02 575.122 4330.9 570.852C4327.7 583.664 4327.7 596.21 4330.9 608.488C4453.15 620.233 4514.81 645.858 4515.88 685.363C4519.08 783.592 4521.75 931.737 4523.89 1129.8C4425.66 1133 4332.77 1134.6 4245.21 1134.6C4098.94 1134.6 3992.97 1133.53 3927.3 1131.4C3927.3 952.023 3930.51 803.345 3936.91 685.363C3937.98 644.79 4027.14 619.165 4204.38 608.488C4207.58 598.345 4207.58 585.799 4204.38 570.852C4064.51 575.122 3955.07 577.258 3876.05 577.258C3810.92 577.258 3718.03 575.122 3597.38 570.852C3593.11 580.461 3593.11 593.007 3597.38 608.488C3720.17 620.233 3782.1 645.858 3783.16 685.363C3788.5 810.819 3791.17 960.031 3791.17 1133C3791.17 1302.23 3787.97 1470.66 3781.56 1638.29C3780.49 1677.8 3718.57 1703.42 3595.78 1715.17C3591.51 1723.71 3591.51 1736.26 3595.78 1752.8C3686.54 1749.6 3779.43 1748 3874.45 1748C3988.16 1748 4097.6 1749.6 4202.77 1752.8C4207.04 1744.26 4207.04 1731.72 4202.77 1715.17C4025.53 1704.49 3936.38 1678.87 3935.31 1638.29C3929.97 1477.6 3927.3 1327.32 3927.3 1187.45C4058.63 1184.78 4164.6 1183.45 4245.21 1183.45C4332.77 1183.45 4425.66 1185.32 4523.89 1189.05C4522.82 1308.1 4520.15 1457.85 4515.88 1638.29ZM4483.05 1638.29C4487.32 1425.82 4489.99 1291.82 4491.05 1236.3C4386.42 1234.17 4304.47 1233.1 4245.21 1233.1C4199.3 1233.1 4156.33 1233.36 4116.29 1233.9C4076.78 1234.43 4054.9 1234.7 4050.62 1234.7C4050.62 1358.02 4053.29 1492.02 4058.63 1636.69C4058.63 1639.89 4059.7 1643.1 4061.84 1646.3C4063.97 1649.5 4067.71 1652.17 4073.05 1654.31C4078.39 1656.44 4083.72 1658.85 4089.06 1661.52C4094.93 1663.65 4102.14 1665.79 4110.68 1667.92C4119.76 1670.06 4127.77 1671.93 4134.71 1673.53C4141.65 1675.13 4150.46 1676.73 4161.13 1678.33C4172.34 1679.93 4181.15 1681.27 4187.56 1682.34C4194.5 1683.4 4203.57 1684.47 4214.79 1685.54C4226.53 1686.61 4234.54 1687.67 4238.81 1688.74C4247.35 1718.64 4245.75 1751.47 4234 1787.24C4037.01 1782.97 3917.16 1780.83 3874.45 1780.83C3846.16 1780.83 3745.79 1782.97 3573.36 1787.24C3560.01 1750.4 3560.01 1715.97 3573.36 1683.94C3689.21 1672.19 3747.66 1656.44 3748.73 1636.69C3755.14 1469.06 3758.34 1301.16 3758.34 1133C3758.34 961.099 3755.67 812.421 3750.33 686.965C3749.26 667.212 3689.74 651.464 3571.76 639.719C3562.68 605.552 3563.75 571.118 3574.96 536.418C3621.94 536.418 3685.47 537.753 3765.55 540.422C3846.16 543.091 3902.21 544.426 3933.71 544.426C3956.67 544.426 4000.98 543.892 4066.64 542.824C4132.3 541.757 4189.16 541.223 4237.21 541.223C4246.82 571.652 4247.35 604.484 4238.81 639.719C4120.83 651.464 4061.3 667.212 4060.23 686.965C4053.83 834.309 4050.62 972.043 4050.62 1100.17C4101.88 1103.37 4166.74 1103.9 4245.21 1101.77L4491.05 1098.57C4488.92 924.53 4486.25 787.329 4483.05 686.965C4481.98 667.212 4422.45 651.464 4304.47 639.719C4294.86 602.349 4295.93 567.915 4307.68 536.418C4385.08 541.757 4489.99 544.426 4622.38 544.426C4647.47 544.426 4698.46 543.892 4775.33 542.824C4852.74 541.757 4917.6 541.223 4969.92 541.223C4980.07 571.652 4980.87 604.484 4972.32 639.719C4853.81 651.464 4794.02 667.212 4792.95 686.965C4787.61 819.361 4784.94 977.915 4784.94 1162.63C4784.94 1346.27 4787.61 1504.3 4792.95 1636.69C4794.02 1656.44 4853.81 1672.19 4972.32 1683.94C4980.87 1718.1 4979.53 1752.54 4968.32 1787.24C4795.89 1782.97 4695.52 1780.83 4667.23 1780.83C4624.52 1780.83 4504.67 1782.97 4307.68 1787.24C4294.86 1750.4 4294.86 1715.97 4307.68 1683.94C4424.59 1672.19 4483.05 1656.98 4483.05 1638.29Z" fill="#151F36"/>
<path d="M1782.81 1638.29L1781.81 1638.31L1781.81 1638.32L1782.81 1638.29ZM1784.41 685.363L1785.41 685.395L1785.41 685.39L1784.41 685.363ZM2051.88 608.488L2051.94 609.486L2052.62 609.445L2052.83 608.789L2051.88 608.488ZM2051.88 570.852L2052.85 570.642L2052.68 569.827L2051.84 569.852L2051.88 570.852ZM1444.88 570.852L1444.92 569.852L1444.24 569.828L1443.97 570.445L1444.88 570.852ZM1444.88 608.488L1443.92 608.754L1444.1 609.418L1444.79 609.484L1444.88 608.488ZM1630.66 685.363L1629.66 685.39L1629.66 685.398L1629.66 685.406L1630.66 685.363ZM1629.06 1638.29L1628.06 1638.25L1628.06 1638.27L1629.06 1638.29ZM1443.28 1715.17L1443.19 1714.17L1442.63 1714.23L1442.39 1714.72L1443.28 1715.17ZM1443.28 1752.8L1442.31 1753.05L1442.51 1753.83L1443.32 1753.8L1443.28 1752.8ZM2050.27 1752.8L2050.24 1753.8L2050.88 1753.82L2051.17 1753.25L2050.27 1752.8ZM2050.27 1715.17L2051.24 1714.92L2051.06 1714.21L2050.33 1714.17L2050.27 1715.17ZM1419.26 639.719L1418.29 639.968L1418.46 640.645L1419.16 640.714L1419.26 639.719ZM1422.46 536.418V535.418H1421.74L1421.51 536.102L1422.46 536.418ZM1613.05 540.422L1613.01 541.421H1613.01L1613.05 540.422ZM2084.71 541.223L2085.66 540.906L2085.43 540.223H2084.71V541.223ZM2086.31 639.719L2086.41 640.714L2087.1 640.645L2087.28 639.968L2086.31 639.719ZM1907.73 686.965L1906.74 686.911L1906.74 686.917L1907.73 686.965ZM1906.13 1636.69H1907.13V1636.66L1907.13 1636.64L1906.13 1636.69ZM1921.35 1654.31L1920.94 1655.22L1920.96 1655.23L1920.98 1655.24L1921.35 1654.31ZM1937.36 1661.52L1936.92 1662.41L1936.95 1662.43L1936.99 1662.44L1937.36 1661.52ZM1958.98 1667.92L1958.76 1668.9L1958.77 1668.9L1958.98 1667.92ZM2008.63 1678.33L2008.48 1679.32L2008.49 1679.32L2008.63 1678.33ZM2035.06 1682.34L2034.89 1683.32L2034.91 1683.32L2035.06 1682.34ZM2062.29 1685.54L2062.19 1686.53L2062.19 1686.53L2062.29 1685.54ZM2086.31 1688.74L2087.27 1688.45L2087.1 1687.91L2086.55 1687.77L2086.31 1688.74ZM2081.5 1787.24L2081.48 1788.24L2082.21 1788.25L2082.45 1787.56L2081.5 1787.24ZM1420.86 1787.24L1419.92 1787.58L1420.16 1788.26L1420.88 1788.24L1420.86 1787.24ZM1420.86 1683.94L1420.76 1682.94L1420.17 1683L1419.94 1683.55L1420.86 1683.94ZM1596.23 1636.69L1597.23 1636.75L1597.23 1636.74L1596.23 1636.69ZM1597.83 686.965L1598.83 686.922L1598.83 686.911L1597.83 686.965ZM1782.81 1638.29L1783.81 1638.27C1779.54 1415.12 1777.41 1246.7 1777.41 1133H1776.41H1775.41C1775.41 1246.72 1777.54 1415.16 1781.81 1638.31L1782.81 1638.29ZM1776.41 1133H1777.41C1777.41 1001.68 1780.08 852.484 1785.41 685.395L1784.41 685.363L1783.41 685.331C1778.08 852.436 1775.41 1001.66 1775.41 1133H1776.41ZM1784.41 685.363L1785.41 685.39C1785.67 675.662 1791.19 666.708 1802.32 658.543C1813.46 650.369 1830.12 643.068 1852.36 636.676C1896.83 623.894 1963.33 614.824 2051.94 609.486L2051.88 608.488L2051.81 607.49C1963.18 612.83 1896.49 621.91 1851.8 634.754C1829.47 641.174 1812.55 648.555 1801.14 656.93C1789.71 665.314 1783.69 674.778 1783.41 685.337L1784.41 685.363ZM2051.88 608.488L2052.83 608.789C2056.1 598.424 2056.08 585.69 2052.85 570.642L2051.88 570.852L2050.9 571.061C2054.08 585.909 2054.05 598.266 2050.92 608.187L2051.88 608.488ZM2051.88 570.852L2051.84 569.852C1911.98 574.123 1802.82 576.258 1724.36 576.258V577.258V578.258C1802.85 578.258 1912.03 576.122 2051.91 571.851L2051.88 570.852ZM1724.36 577.258V576.258C1658.71 576.258 1565.57 574.123 1444.92 569.852L1444.88 570.852L1444.85 571.851C1565.5 576.122 1658.67 578.258 1724.36 578.258V577.258ZM1444.88 570.852L1443.97 570.445C1439.57 580.353 1439.62 593.162 1443.92 608.754L1444.88 608.488L1445.85 608.222C1441.61 592.851 1441.66 580.569 1445.8 571.258L1444.88 570.852ZM1444.88 608.488L1444.79 609.484C1506.15 615.353 1552.21 624.685 1583.04 637.44C1613.91 650.214 1629.15 666.261 1629.66 685.39L1630.66 685.363L1631.66 685.336C1631.11 664.96 1614.85 648.442 1583.8 635.592C1552.7 622.722 1506.4 613.368 1444.98 607.493L1444.88 608.488ZM1630.66 685.363L1629.66 685.406C1635 810.843 1637.67 960.041 1637.67 1133H1638.67H1639.67C1639.67 960.022 1637 810.795 1631.66 685.321L1630.66 685.363ZM1638.67 1133H1637.67C1637.67 1302.22 1634.47 1470.64 1628.06 1638.25L1629.06 1638.29L1630.06 1638.33C1636.47 1470.69 1639.67 1302.24 1639.67 1133H1638.67ZM1629.06 1638.29L1628.06 1638.27C1627.55 1657.4 1612.31 1673.44 1581.43 1686.22C1550.61 1698.97 1504.55 1708.3 1443.19 1714.17L1443.28 1715.17L1443.38 1716.16C1504.8 1710.29 1551.1 1700.93 1582.2 1688.06C1613.25 1675.21 1629.51 1658.7 1630.06 1638.32L1629.06 1638.29ZM1443.28 1715.17L1442.39 1714.72C1437.95 1723.59 1438.02 1736.44 1442.31 1753.05L1443.28 1752.8L1444.25 1752.55C1440 1736.07 1440.07 1723.83 1444.18 1715.62L1443.28 1715.17ZM1443.28 1752.8L1443.32 1753.8C1534.06 1750.6 1627.21 1749 1722.75 1749V1748V1747C1627.18 1747 1534.01 1748.6 1443.25 1751.81L1443.28 1752.8ZM1722.75 1748V1749C1836.46 1749 1945.62 1750.6 2050.24 1753.8L2050.27 1752.8L2050.3 1751.81C1945.66 1748.6 1836.47 1747 1722.75 1747V1748ZM2050.27 1752.8L2051.17 1753.25C2055.6 1744.38 2055.53 1731.54 2051.24 1714.92L2050.27 1715.17L2049.31 1715.42C2053.56 1731.9 2053.48 1744.15 2049.38 1752.36L2050.27 1752.8ZM2050.27 1715.17L2050.33 1714.17C1961.73 1708.83 1895.22 1699.76 1850.75 1686.98C1828.52 1680.59 1811.86 1673.29 1800.72 1665.11C1789.59 1656.95 1784.07 1647.99 1783.81 1638.27L1782.81 1638.29L1781.81 1638.32C1782.09 1648.88 1788.11 1658.34 1799.54 1666.73C1810.95 1675.1 1827.86 1682.48 1850.2 1688.9C1894.89 1701.75 1961.57 1710.83 2050.21 1716.17L2050.27 1715.17ZM1419.26 639.719L1420.23 639.469C1411.2 604.416 1412.26 570.179 1423.41 536.734L1422.46 536.418L1421.51 536.102C1410.24 569.922 1409.17 604.552 1418.29 639.968L1419.26 639.719ZM1422.46 536.418V537.418C1469.42 537.418 1532.94 538.752 1613.01 541.421L1613.05 540.422L1613.08 539.422C1533 536.753 1469.46 535.418 1422.46 535.418V536.418ZM1613.05 540.422L1613.01 541.421C1693.62 544.091 1749.69 545.426 1781.21 545.426V544.426V543.426C1749.73 543.426 1693.69 542.092 1613.08 539.422L1613.05 540.422ZM1781.21 544.426V545.426C1804.18 545.426 1848.49 544.892 1914.16 543.824L1914.14 542.824L1914.12 541.824C1848.46 542.892 1804.16 543.426 1781.21 543.426V544.426ZM1914.14 542.824L1914.16 543.824C1979.82 542.756 2036.67 542.223 2084.71 542.223V541.223V540.223C2036.65 540.223 1979.79 540.757 1914.12 541.824L1914.14 542.824ZM2084.71 541.223L2083.76 541.539C2093.83 571.762 2094.37 604.396 2085.34 639.469L2086.31 639.719L2087.28 639.968C2096.39 604.573 2095.87 571.543 2085.66 540.906L2084.71 541.223ZM2086.31 639.719L2086.21 638.724C2027.2 644.597 1982.76 651.477 1952.92 659.372C1938.01 663.318 1926.68 667.533 1918.99 672.038C1911.35 676.516 1907.03 681.444 1906.74 686.911L1907.73 686.965L1908.73 687.019C1908.97 682.609 1912.5 678.161 1920 673.764C1927.46 669.394 1938.59 665.234 1953.43 661.306C1983.12 653.452 2027.43 646.585 2086.41 640.714L2086.31 639.719ZM1907.73 686.965L1906.74 686.917C1900.33 820.402 1897.12 988.851 1897.12 1192.26H1898.12H1899.12C1899.12 988.868 1902.33 820.454 1908.73 687.013L1907.73 686.965ZM1898.12 1192.26H1897.12C1897.12 1388.72 1899.79 1536.89 1905.13 1636.74L1906.13 1636.69L1907.13 1636.64C1901.79 1536.83 1899.12 1388.71 1899.12 1192.26H1898.12ZM1906.13 1636.69H1905.13C1905.13 1640.19 1906.6 1643.61 1909.37 1646.94L1910.14 1646.3L1910.9 1645.66C1908.34 1642.58 1907.13 1639.6 1907.13 1636.69H1906.13ZM1910.14 1646.3L1909.37 1646.94C1912.16 1650.29 1916.03 1653.04 1920.94 1655.22L1921.35 1654.31L1921.75 1653.39C1917.05 1651.31 1913.45 1648.72 1910.9 1645.66L1910.14 1646.3ZM1921.35 1654.31L1920.98 1655.24C1926.29 1657.36 1931.6 1659.75 1936.92 1662.41L1937.36 1661.52L1937.81 1660.62C1932.45 1657.94 1927.08 1655.53 1921.72 1653.38L1921.35 1654.31ZM1937.36 1661.52L1936.99 1662.44C1942.4 1664.61 1949.66 1666.75 1958.76 1668.9L1958.98 1667.92L1959.21 1666.95C1950.16 1664.82 1943.01 1662.7 1937.73 1660.59L1937.36 1661.52ZM1958.98 1667.92L1958.77 1668.9C1968.37 1671.03 1976.37 1672.9 1982.77 1674.5L1983.01 1673.53L1983.25 1672.56C1976.83 1670.95 1968.82 1669.08 1959.2 1666.95L1958.98 1667.92ZM1983.01 1673.53L1982.77 1674.5C1989.22 1676.11 1997.79 1677.72 2008.48 1679.32L2008.63 1678.33L2008.78 1677.34C1998.12 1675.74 1989.61 1674.15 1983.25 1672.56L1983.01 1673.53ZM2008.63 1678.33L2008.49 1679.32C2019.7 1680.92 2028.5 1682.26 2034.89 1683.32L2035.06 1682.34L2035.22 1681.35C2028.81 1680.28 2019.99 1678.94 2008.77 1677.34L2008.63 1678.33ZM2035.06 1682.34L2034.91 1683.32C2041.87 1684.4 2050.97 1685.47 2062.19 1686.53L2062.29 1685.54L2062.38 1684.54C2051.18 1683.48 2042.12 1682.41 2035.21 1681.35L2035.06 1682.34ZM2062.29 1685.54L2062.19 1686.53C2073.95 1687.6 2081.88 1688.67 2086.07 1689.71L2086.31 1688.74L2086.55 1687.77C2082.2 1686.68 2074.11 1685.61 2062.38 1684.54L2062.29 1685.54ZM2086.31 1688.74L2085.35 1689.03C2094.35 1718.69 2092.78 1751.3 2080.56 1786.91L2081.5 1787.24L2082.45 1787.56C2094.78 1751.64 2096.41 1718.59 2087.27 1688.45L2086.31 1688.74ZM2081.5 1787.24L2081.53 1786.24C1884.54 1781.97 1764.94 1779.83 1722.75 1779.83V1780.83V1781.83C1764.91 1781.83 1884.48 1783.97 2081.48 1788.24L2081.5 1787.24ZM1722.75 1780.83V1779.83C1693.91 1779.83 1593.26 1781.97 1420.83 1786.24L1420.86 1787.24L1420.88 1788.24C1593.33 1783.97 1693.94 1781.83 1722.75 1781.83V1780.83ZM1420.86 1787.24L1421.8 1786.9C1408.53 1750.26 1408.54 1716.09 1421.78 1684.32L1420.86 1683.94L1419.94 1683.55C1406.48 1715.85 1406.5 1750.54 1419.92 1787.58L1420.86 1787.24ZM1420.86 1683.94L1420.96 1684.93C1478.9 1679.06 1522.54 1672.18 1551.85 1664.28C1566.49 1660.34 1577.62 1656.12 1585.18 1651.61C1592.7 1647.13 1596.93 1642.2 1597.23 1636.75L1596.23 1636.69L1595.23 1636.64C1594.99 1641.06 1591.52 1645.5 1584.16 1649.9C1576.83 1654.26 1565.91 1658.42 1551.33 1662.35C1522.18 1670.2 1478.67 1677.07 1420.76 1682.94L1420.86 1683.94ZM1596.23 1636.69L1597.23 1636.74C1603.64 1503.25 1606.84 1335.34 1606.84 1133H1605.84H1604.84C1604.84 1335.32 1601.64 1503.2 1595.23 1636.64L1596.23 1636.69ZM1605.84 1133H1606.84C1606.84 961.09 1604.17 812.396 1598.83 686.922L1597.83 686.965L1596.83 687.007C1602.17 812.445 1604.84 961.108 1604.84 1133H1605.84ZM1597.83 686.965L1598.83 686.911C1598.54 681.444 1594.22 676.516 1586.58 672.038C1578.89 667.533 1567.56 663.318 1552.64 659.372C1522.8 651.477 1478.36 644.597 1419.36 638.724L1419.26 639.719L1419.16 640.714C1478.14 646.585 1522.45 653.452 1552.13 661.306C1566.98 665.234 1578.11 669.394 1585.57 673.764C1593.07 678.161 1596.6 682.609 1596.83 687.019L1597.83 686.965ZM2192.81 937.609L2192.45 938.54L2193.22 938.847L2193.66 938.135L2192.81 937.609ZM2112.73 875.148L2111.85 874.682L2111.61 875.136L2111.84 875.596L2112.73 875.148ZM2173.59 759.035L2172.71 758.56L2172.71 758.569L2172.7 758.578L2173.59 759.035ZM2209.63 668.547L2208.68 668.227L2208.68 668.234L2209.63 668.547ZM2238.46 544.426V543.426H2237.58L2237.47 544.299L2238.46 544.426ZM3460.45 544.426L3461.44 544.299L3461.33 543.426H3460.45V544.426ZM3585.37 875.148L3586.27 875.581L3586.51 875.094L3586.23 874.632L3585.37 875.148ZM3499.69 937.609L3498.81 938.091L3499.22 938.838L3500.02 938.551L3499.69 937.609ZM3305.9 739.016L3305.37 739.862L3305.37 739.866L3305.9 739.016ZM2975.18 658.938V657.938H2974.21L2974.18 658.905L2975.18 658.938ZM2976.78 1636.69L2975.78 1636.74L2975.78 1636.75L2976.78 1636.69ZM3155.35 1683.94L3156.32 1683.68L3156.14 1683.01L3155.45 1682.94L3155.35 1683.94ZM3152.15 1787.24L3152.12 1788.24L3152.87 1788.26L3153.1 1787.55L3152.15 1787.24ZM2491.5 1787.24L2490.56 1787.58L2490.81 1788.25L2491.53 1788.24L2491.5 1787.24ZM2491.5 1683.94L2491.4 1682.94L2490.81 1683L2490.58 1683.55L2491.5 1683.94ZM2666.88 1638.29L2667.87 1638.35L2667.87 1638.34L2667.87 1638.33L2666.88 1638.29ZM2668.48 663.742L2669.48 663.712L2669.44 662.608L2668.35 662.75L2668.48 663.742ZM2419.43 630.91V631.91H2419.45L2419.46 631.91L2419.43 630.91ZM2699.71 622.902L2700.71 622.872L2700.68 621.874L2699.68 621.903L2699.71 622.902ZM2699.71 1638.29L2698.71 1638.25L2698.71 1638.27L2699.71 1638.29ZM2513.93 1715.17L2513.83 1714.17L2513.28 1714.23L2513.03 1714.72L2513.93 1715.17ZM2513.93 1752.8L2512.96 1753.05L2513.16 1753.83L2513.96 1753.8L2513.93 1752.8ZM3120.92 1752.8L3120.89 1753.8L3121.56 1753.82L3121.83 1753.21L3120.92 1752.8ZM3120.92 1715.17L3121.88 1714.9L3121.69 1714.21L3120.98 1714.17L3120.92 1715.17ZM2853.46 1638.29L2854.46 1638.27L2854.46 1638.26L2853.46 1638.29ZM2853.46 622.902L2853.48 621.903L2852.5 621.877L2852.46 622.862L2853.46 622.902ZM2976.78 626.105L2976.75 627.105H2976.75L2976.78 626.105ZM3514.9 896.77L3514.02 897.24L3514.44 898.02L3515.26 897.703L3514.9 896.77ZM3542.13 875.148L3543.03 875.574L3543.24 875.14L3543.03 874.708L3542.13 875.148ZM2268.09 575.656V574.656H2267.2L2267.09 575.539L2268.09 575.656ZM2241.66 682.961L2240.72 682.634L2240.71 682.645L2240.71 682.656L2241.66 682.961ZM2219.24 736.613L2218.34 736.183L2218.33 736.192L2218.33 736.201L2219.24 736.613ZM2198.42 782.258L2199.31 782.705L2199.32 782.693L2199.32 782.681L2198.42 782.258ZM2172.79 831.906L2171.91 831.444L2171.9 831.452L2171.9 831.459L2172.79 831.906ZM2150.37 875.148L2149.54 874.594L2149.23 875.063L2149.47 875.574L2150.37 875.148ZM2178.4 896.77L2178.05 897.707L2178.83 897.994L2179.25 897.288L2178.4 896.77ZM2340.16 672.551L2340.85 673.271L2340.85 673.271L2340.16 672.551ZM2192.81 937.609L2193.18 936.679C2152.72 920.708 2126.29 900.015 2113.63 874.701L2112.73 875.148L2111.84 875.596C2124.81 901.532 2151.76 922.479 2192.45 938.54L2192.81 937.609ZM2112.73 875.148L2113.62 875.615C2144.05 817.96 2164.34 779.25 2174.48 759.492L2173.59 759.035L2172.7 758.578C2162.56 778.325 2142.28 817.025 2111.85 874.682L2112.73 875.148ZM2173.59 759.035L2174.47 759.511C2185.19 739.678 2197.23 709.448 2210.58 668.859L2209.63 668.547L2208.68 668.234C2195.34 708.792 2183.35 738.887 2172.71 758.56L2173.59 759.035ZM2209.63 668.547L2210.58 668.867C2224.48 627.699 2234.1 586.261 2239.45 544.553L2238.46 544.426L2237.47 544.299C2232.14 585.872 2222.54 627.181 2208.68 668.227L2209.63 668.547ZM2238.46 544.426V545.426H2793.4V544.426V543.426H2238.46V544.426ZM2793.4 544.426V545.426H3460.45V544.426V543.426H2793.4V544.426ZM3460.45 544.426L3459.46 544.552C3472.83 649.359 3514.53 759.732 3584.51 875.665L3585.37 875.148L3586.23 874.632C3516.34 758.872 3474.77 648.763 3461.44 544.299L3460.45 544.426ZM3585.37 875.148L3584.47 874.716C3572.36 899.986 3544.1 920.684 3499.35 936.668L3499.69 937.609L3500.02 938.551C3544.96 922.503 3573.82 901.561 3586.27 875.581L3585.37 875.148ZM3499.69 937.609L3500.56 937.127C3456.7 857.417 3391.97 791.098 3306.42 738.165L3305.9 739.016L3305.37 739.866C3390.66 792.637 3455.13 858.714 3498.81 938.091L3499.69 937.609ZM3305.9 739.016L3306.43 738.169C3221.34 684.654 3110.9 657.938 2975.18 657.938V658.938V659.938C3110.65 659.938 3220.69 686.607 3305.37 739.862L3305.9 739.016ZM2975.18 658.938L2974.18 658.905C2969.91 791.315 2967.77 948.279 2967.77 1129.8H2968.77H2969.77C2969.77 948.294 2971.9 791.352 2976.18 658.97L2975.18 658.938ZM2968.77 1129.8H2967.77C2967.77 1361.49 2970.44 1530.48 2975.78 1636.74L2976.78 1636.69L2977.78 1636.64C2972.44 1530.43 2969.77 1361.49 2969.77 1129.8H2968.77ZM2976.78 1636.69L2975.78 1636.75C2976.07 1642.21 2980.39 1647.14 2988.03 1651.62C2995.72 1656.12 3007.05 1660.34 3021.97 1664.28C3051.81 1672.18 3096.25 1679.06 3155.25 1684.93L3155.35 1683.94L3155.45 1682.94C3096.47 1677.07 3052.16 1670.2 3022.48 1662.35C3007.63 1658.42 2996.5 1654.26 2989.04 1649.89C2981.54 1645.49 2978.01 1641.05 2977.78 1636.64L2976.78 1636.69ZM3155.35 1683.94L3154.39 1684.19C3163.41 1718.17 3162.35 1752.41 3151.2 1786.93L3152.15 1787.24L3153.1 1787.55C3164.37 1752.67 3165.44 1718.04 3156.32 1683.68L3155.35 1683.94ZM3152.15 1787.24L3152.17 1786.24C2979.21 1781.97 2878.56 1779.83 2850.25 1779.83V1780.83V1781.83C2878.53 1781.83 2979.15 1783.97 3152.12 1788.24L3152.15 1787.24ZM2850.25 1780.83V1779.83C2807.53 1779.83 2687.94 1781.97 2491.48 1786.24L2491.5 1787.24L2491.53 1788.24C2687.99 1783.97 2807.56 1781.83 2850.25 1781.83V1780.83ZM2491.5 1787.24L2492.44 1786.9C2479.17 1750.26 2479.19 1716.09 2492.43 1684.32L2491.5 1683.94L2490.58 1683.55C2477.13 1715.85 2477.14 1750.54 2490.56 1787.58L2491.5 1787.24ZM2491.5 1683.94L2491.6 1684.93C2549.54 1679.06 2593.18 1672.31 2622.48 1664.69C2637.13 1660.87 2648.25 1656.83 2655.81 1652.53C2663.31 1648.26 2667.58 1643.56 2667.87 1638.35L2666.88 1638.29L2665.88 1638.24C2665.64 1642.36 2662.2 1646.58 2654.82 1650.79C2647.49 1654.96 2636.56 1658.95 2621.98 1662.75C2592.83 1670.34 2549.31 1677.07 2491.4 1682.94L2491.5 1683.94ZM2666.88 1638.29L2667.87 1638.33C2673.21 1503.78 2675.88 1334.27 2675.88 1129.8H2674.88H2673.88C2673.88 1334.26 2671.21 1503.74 2665.88 1638.25L2666.88 1638.29ZM2674.88 1129.8H2675.88C2675.88 958.956 2673.75 803.594 2669.48 663.712L2668.48 663.742L2667.48 663.773C2671.75 803.63 2673.88 958.972 2673.88 1129.8H2674.88ZM2668.48 663.742L2668.35 662.75C2446.04 691.607 2287.18 783.017 2191.96 937.084L2192.81 937.609L2193.66 938.135C2288.49 784.701 2446.74 693.533 2668.61 664.734L2668.48 663.742ZM2419.43 630.91L2419.46 631.91L2699.74 623.902L2699.71 622.902L2699.68 621.903L2419.41 629.911L2419.43 630.91ZM2699.71 622.902L2698.71 622.932C2704.05 800.163 2706.71 969.118 2706.71 1129.8H2707.71H2708.71C2708.71 969.096 2706.05 800.121 2700.71 622.872L2699.71 622.902ZM2707.71 1129.8H2706.71C2706.71 1336.39 2704.05 1505.88 2698.71 1638.25L2699.71 1638.29L2700.71 1638.33C2706.05 1505.92 2708.71 1336.41 2708.71 1129.8H2707.71ZM2699.71 1638.29L2698.71 1638.27C2698.19 1657.4 2682.95 1673.44 2652.08 1686.22C2621.25 1698.97 2575.19 1708.3 2513.83 1714.17L2513.93 1715.17L2514.02 1716.16C2575.44 1710.29 2621.74 1700.93 2652.84 1688.06C2683.9 1675.21 2700.16 1658.7 2700.71 1638.32L2699.71 1638.29ZM2513.93 1715.17L2513.03 1714.72C2508.59 1723.59 2508.67 1736.44 2512.96 1753.05L2513.93 1752.8L2514.89 1752.55C2510.64 1736.07 2510.71 1723.83 2514.82 1715.62L2513.93 1715.17ZM2513.93 1752.8L2513.96 1753.8C2604.7 1750.6 2697.85 1749 2793.4 1749V1748V1747C2697.83 1747 2604.66 1748.6 2513.89 1751.81L2513.93 1752.8ZM2793.4 1748V1749C2907.1 1749 3016.26 1750.6 3120.89 1753.8L3120.92 1752.8L3120.95 1751.81C3016.3 1748.6 2907.12 1747 2793.4 1747V1748ZM3120.92 1752.8L3121.83 1753.21C3126.23 1743.3 3126.18 1730.49 3121.88 1714.9L3120.92 1715.17L3119.95 1715.43C3124.19 1730.8 3124.14 1743.09 3120 1752.4L3120.92 1752.8ZM3120.92 1715.17L3120.98 1714.17C3032.38 1708.83 2965.87 1699.76 2921.4 1686.98C2899.16 1680.59 2882.51 1673.29 2871.37 1665.11C2860.24 1656.95 2854.71 1647.99 2854.46 1638.27L2853.46 1638.29L2852.46 1638.32C2852.74 1648.88 2858.76 1658.34 2870.18 1666.73C2881.6 1675.1 2898.51 1682.48 2920.85 1688.9C2965.53 1701.75 3032.22 1710.83 3120.86 1716.17L3120.92 1715.17ZM2853.46 1638.29L2854.46 1638.26C2849.12 1461.03 2846.45 1291.54 2846.45 1129.8H2845.45H2844.45C2844.45 1291.57 2847.12 1461.07 2852.46 1638.32L2853.46 1638.29ZM2845.45 1129.8H2846.45C2846.45 924.27 2849.12 755.32 2854.46 622.943L2853.46 622.902L2852.46 622.862C2847.12 755.276 2844.45 924.256 2844.45 1129.8H2845.45ZM2853.46 622.902L2853.43 623.902L2976.75 627.105L2976.78 626.105L2976.8 625.106L2853.48 621.903L2853.46 622.902ZM2976.78 626.105L2976.75 627.105C3242.4 633.506 3421.36 723.631 3514.02 897.24L3514.9 896.77L3515.78 896.299C3422.67 721.835 3242.88 631.517 2976.8 625.106L2976.78 626.105ZM3514.9 896.77L3515.26 897.703C3529.27 892.316 3538.61 884.974 3543.03 875.574L3542.13 875.148L3541.22 874.723C3537.11 883.474 3528.3 890.546 3514.54 895.836L3514.9 896.77ZM3542.13 875.148L3543.03 874.708C3489.6 765.72 3429.71 688.675 3363.31 643.695L3362.75 644.523L3362.19 645.351C3428.19 690.06 3487.89 766.764 3541.23 875.589L3542.13 875.148ZM3362.75 644.523L3363.31 643.695C3296.88 598.689 3198.14 576.258 3067.27 576.258V577.258V578.258C3197.98 578.258 3296.24 600.671 3362.19 645.351L3362.75 644.523ZM3067.27 577.258V576.258H2793.4V577.258V578.258H3067.27V577.258ZM2793.4 577.258V576.258C2735.21 576.258 2647.39 575.991 2529.95 575.457L2529.94 576.457L2529.94 577.457C2647.39 577.991 2735.21 578.258 2793.4 578.258V577.258ZM2529.94 576.457L2529.95 575.457C2412.5 574.923 2325.21 574.656 2268.09 574.656V575.656V576.656C2325.21 576.656 2412.49 576.923 2529.94 577.457L2529.94 576.457ZM2268.09 575.656L2267.09 575.539C2264.96 593.636 2261.24 612.54 2255.91 632.251L2256.88 632.512L2257.84 632.773C2263.19 612.978 2266.94 593.978 2269.08 575.773L2268.09 575.656ZM2256.88 632.512L2255.91 632.251C2250.57 651.989 2245.51 668.782 2240.72 682.634L2241.66 682.961L2242.61 683.288C2247.42 669.379 2252.5 652.54 2257.84 632.773L2256.88 632.512ZM2241.66 682.961L2240.71 682.656C2236.46 695.939 2229.01 713.776 2218.34 736.183L2219.24 736.613L2220.14 737.043C2230.83 714.607 2238.32 696.675 2242.61 683.266L2241.66 682.961ZM2219.24 736.613L2218.33 736.201C2208.18 758.624 2201.25 773.833 2197.51 781.835L2198.42 782.258L2199.32 782.681C2203.06 774.667 2210.01 759.447 2220.15 737.025L2219.24 736.613ZM2198.42 782.258L2197.52 781.811C2193.79 789.276 2185.25 805.817 2171.91 831.444L2172.79 831.906L2173.68 832.368C2187.03 806.745 2195.57 790.188 2199.31 782.705L2198.42 782.258ZM2172.79 831.906L2171.9 831.459C2165.49 844.27 2160.42 854.275 2156.69 861.475C2152.94 868.702 2150.57 873.049 2149.54 874.594L2150.37 875.148L2151.2 875.703C2152.31 874.045 2154.74 869.583 2158.47 862.396C2162.21 855.182 2167.28 845.168 2173.69 832.353L2172.79 831.906ZM2150.37 875.148L2149.47 875.574C2153.9 884.987 2163.52 892.325 2178.05 897.707L2178.4 896.77L2178.75 895.832C2164.45 890.537 2155.39 883.461 2151.28 874.723L2150.37 875.148ZM2178.4 896.77L2179.25 897.288C2217.15 834.831 2246.5 788.675 2267.3 758.806L2266.48 758.234L2265.66 757.663C2244.82 787.586 2215.45 833.786 2177.54 896.251L2178.4 896.77ZM2266.48 758.234L2267.3 758.806C2288.09 728.968 2312.6 700.456 2340.85 673.271L2340.16 672.551L2339.46 671.83C2311.13 699.099 2286.52 727.709 2265.66 757.663L2266.48 758.234ZM2340.16 672.551L2340.85 673.271C2369.61 645.578 2395.79 631.91 2419.43 631.91V630.91V629.91C2395.03 629.91 2368.36 644.003 2339.46 671.83L2340.16 672.551ZM4515.88 1638.29L4514.88 1638.27L4514.88 1638.28V1638.29H4515.88ZM4330.9 1715.17L4330.8 1714.17L4330.25 1714.22L4330 1714.72L4330.9 1715.17ZM4330.9 1752.8L4329.93 1753.05L4330.13 1753.83L4330.93 1753.8L4330.9 1752.8ZM4937.89 1752.8L4937.86 1753.8L4938.53 1753.82L4938.8 1753.21L4937.89 1752.8ZM4937.89 1715.17L4938.85 1714.9L4938.66 1714.21L4937.95 1714.17L4937.89 1715.17ZM4670.43 1638.29L4671.43 1638.27L4671.43 1638.26L4671.43 1638.25L4670.43 1638.29ZM4670.43 685.363L4671.43 685.408L4671.43 685.399L4671.43 685.39L4670.43 685.363ZM4937.89 608.488L4937.95 609.486L4938.58 609.448L4938.82 608.86L4937.89 608.488ZM4937.89 570.852L4938.8 570.438L4938.53 569.832L4937.86 569.852L4937.89 570.852ZM4330.9 570.852L4330.93 569.852L4330.12 569.823L4329.93 570.609L4330.9 570.852ZM4330.9 608.488L4329.93 608.741L4330.11 609.417L4330.8 609.484L4330.9 608.488ZM4515.88 685.363L4514.88 685.39L4514.88 685.396L4515.88 685.363ZM4523.89 1129.8L4523.92 1130.8L4524.9 1130.76L4524.89 1129.79L4523.89 1129.8ZM3927.3 1131.4H3926.3V1132.37L3927.27 1132.4L3927.3 1131.4ZM3936.91 685.363L3937.91 685.417L3937.91 685.404L3937.91 685.39L3936.91 685.363ZM4204.38 608.488L4204.44 609.486L4205.12 609.445L4205.33 608.789L4204.38 608.488ZM4204.38 570.852L4205.35 570.642L4205.18 569.827L4204.34 569.852L4204.38 570.852ZM3597.38 570.852L3597.42 569.852L3596.74 569.828L3596.47 570.445L3597.38 570.852ZM3597.38 608.488L3596.42 608.754L3596.6 609.418L3597.29 609.484L3597.38 608.488ZM3783.16 685.363L3782.16 685.39L3782.16 685.398L3782.17 685.406L3783.16 685.363ZM3781.56 1638.29L3780.56 1638.25L3780.56 1638.27L3781.56 1638.29ZM3595.78 1715.17L3595.69 1714.17L3595.13 1714.23L3594.89 1714.72L3595.78 1715.17ZM3595.78 1752.8L3594.81 1753.05L3595.01 1753.83L3595.82 1753.8L3595.78 1752.8ZM4202.77 1752.8L4202.74 1753.8L4203.38 1753.82L4203.67 1753.25L4202.77 1752.8ZM4202.77 1715.17L4203.74 1714.92L4203.56 1714.21L4202.83 1714.17L4202.77 1715.17ZM3935.31 1638.29L3936.31 1638.27L3936.31 1638.26L3935.31 1638.29ZM3927.3 1187.45L3927.28 1186.45L3926.3 1186.47V1187.45H3927.3ZM4523.89 1189.05L4524.89 1189.06L4524.9 1188.09L4523.92 1188.06L4523.89 1189.05ZM4483.05 1638.29L4482.05 1638.27L4482.05 1638.28V1638.29H4483.05ZM4491.05 1236.3L4492.05 1236.32L4492.07 1235.32L4491.08 1235.3L4491.05 1236.3ZM4116.29 1233.9L4116.28 1232.9L4116.29 1233.9ZM4050.62 1234.7V1233.7H4049.62V1234.7H4050.62ZM4058.63 1636.69H4059.63V1636.67L4059.63 1636.65L4058.63 1636.69ZM4089.06 1661.52L4088.62 1662.41L4088.67 1662.44L4088.72 1662.46L4089.06 1661.52ZM4110.68 1667.92L4110.44 1668.89L4110.45 1668.9L4110.68 1667.92ZM4161.13 1678.33L4160.98 1679.32L4160.99 1679.32L4161.13 1678.33ZM4187.56 1682.34L4187.39 1683.32L4187.41 1683.32L4187.56 1682.34ZM4214.79 1685.54L4214.69 1686.53L4214.69 1686.53L4214.79 1685.54ZM4238.81 1688.74L4239.77 1688.47L4239.61 1687.91L4239.05 1687.77L4238.81 1688.74ZM4234 1787.24L4233.98 1788.24L4234.72 1788.25L4234.95 1787.55L4234 1787.24ZM3573.36 1787.24L3572.42 1787.58L3572.66 1788.26L3573.38 1788.24L3573.36 1787.24ZM3573.36 1683.94L3573.26 1682.94L3572.67 1683L3572.44 1683.55L3573.36 1683.94ZM3748.73 1636.69L3749.73 1636.75L3749.73 1636.74L3749.73 1636.73L3748.73 1636.69ZM3750.33 686.965L3751.33 686.922L3751.33 686.911L3750.33 686.965ZM3571.76 639.719L3570.79 639.975L3570.97 640.645L3571.66 640.714L3571.76 639.719ZM3574.96 536.418V535.418H3574.23L3574.01 536.111L3574.96 536.418ZM3765.55 540.422L3765.51 541.421L3765.55 540.422ZM4237.21 541.223L4238.16 540.922L4237.94 540.223H4237.21V541.223ZM4238.81 639.719L4238.91 640.714L4239.61 640.644L4239.78 639.954L4238.81 639.719ZM4060.23 686.965L4059.24 686.911L4059.24 686.921L4060.23 686.965ZM4050.62 1100.17H4049.62V1101.11L4050.56 1101.17L4050.62 1100.17ZM4245.21 1101.77L4245.2 1100.77H4245.19L4245.19 1100.77L4245.21 1101.77ZM4491.05 1098.57L4491.07 1099.57L4492.07 1099.55L4492.05 1098.55L4491.05 1098.57ZM4483.05 686.965L4484.05 686.933L4484.05 686.922L4484.05 686.911L4483.05 686.965ZM4304.47 639.719L4303.5 639.968L4303.68 640.645L4304.37 640.714L4304.47 639.719ZM4307.68 536.418L4307.74 535.42L4307 535.369L4306.74 536.069L4307.68 536.418ZM4775.33 542.824L4775.32 541.824H4775.32L4775.33 542.824ZM4969.92 541.223L4970.87 540.906L4970.64 540.223H4969.92V541.223ZM4972.32 639.719L4972.42 640.714L4973.13 640.644L4973.3 639.954L4972.32 639.719ZM4792.95 686.965L4791.95 686.911L4791.95 686.925L4792.95 686.965ZM4792.95 1636.69L4791.95 1636.73L4791.95 1636.75L4792.95 1636.69ZM4972.32 1683.94L4973.29 1683.69L4973.12 1683.01L4972.42 1682.94L4972.32 1683.94ZM4968.32 1787.24L4968.3 1788.24L4969.04 1788.26L4969.27 1787.55L4968.32 1787.24ZM4307.68 1787.24L4306.73 1787.57L4306.97 1788.25L4307.7 1788.24L4307.68 1787.24ZM4307.68 1683.94L4307.58 1682.94L4306.97 1683L4306.75 1683.57L4307.68 1683.94ZM4515.88 1638.29H4514.88C4514.88 1657.41 4499.99 1673.44 4469.25 1686.22C4438.56 1698.97 4392.43 1708.3 4330.8 1714.17L4330.9 1715.17L4330.99 1716.16C4392.68 1710.29 4439.05 1700.93 4470.02 1688.06C4500.94 1675.21 4516.88 1658.69 4516.88 1638.29H4515.88ZM4330.9 1715.17L4330 1714.72C4325.57 1723.59 4325.64 1736.44 4329.93 1753.05L4330.9 1752.8L4331.87 1752.55C4327.61 1736.07 4327.69 1723.83 4331.79 1715.62L4330.9 1715.17ZM4330.9 1752.8L4330.93 1753.8C4421.68 1750.6 4514.56 1749 4609.57 1749V1748V1747C4514.53 1747 4421.63 1748.6 4330.86 1751.81L4330.9 1752.8ZM4609.57 1748V1749C4723.27 1749 4832.7 1750.6 4937.86 1753.8L4937.89 1752.8L4937.92 1751.81C4832.74 1748.6 4723.29 1747 4609.57 1747V1748ZM4937.89 1752.8L4938.8 1753.21C4943.21 1743.3 4943.16 1730.49 4938.85 1714.9L4937.89 1715.17L4936.93 1715.43C4941.17 1730.8 4941.12 1743.09 4936.98 1752.4L4937.89 1752.8ZM4937.89 1715.17L4937.95 1714.17C4849.35 1708.83 4782.84 1699.76 4738.37 1686.98C4716.13 1680.59 4699.48 1673.29 4688.34 1665.11C4677.21 1656.95 4671.69 1647.99 4671.43 1638.27L4670.43 1638.29L4669.43 1638.32C4669.71 1648.88 4675.73 1658.34 4687.16 1666.73C4698.57 1675.1 4715.48 1682.48 4737.82 1688.9C4782.5 1701.75 4849.19 1710.83 4937.83 1716.17L4937.89 1715.17ZM4670.43 1638.29L4671.43 1638.25C4665.56 1505.87 4662.62 1347.33 4662.62 1162.63H4661.62H4660.62C4660.62 1347.35 4663.56 1505.92 4669.43 1638.34L4670.43 1638.29ZM4661.62 1162.63H4662.62C4662.62 976.857 4665.56 817.784 4671.43 685.408L4670.43 685.363L4669.43 685.319C4663.56 817.734 4660.62 976.838 4660.62 1162.63H4661.62ZM4670.43 685.363L4671.43 685.39C4671.69 675.662 4677.21 666.708 4688.34 658.543C4699.48 650.369 4716.13 643.068 4738.37 636.676C4782.84 623.894 4849.35 614.824 4937.95 609.486L4937.89 608.488L4937.83 607.49C4849.19 612.83 4782.5 621.91 4737.82 634.754C4715.48 641.174 4698.57 648.555 4687.16 656.93C4675.73 665.314 4669.71 674.778 4669.43 685.337L4670.43 685.363ZM4937.89 608.488L4938.82 608.86C4944.25 595.292 4944.27 582.46 4938.8 570.438L4937.89 570.852L4936.98 571.265C4942.19 582.732 4942.21 594.992 4936.96 608.117L4937.89 608.488ZM4937.89 570.852L4937.86 569.852C4797.46 574.123 4688.03 576.258 4609.57 576.258V577.258V578.258C4688.06 578.258 4797.51 576.122 4937.92 571.851L4937.89 570.852ZM4609.57 577.258V576.258C4543.92 576.258 4451.05 574.123 4330.93 569.852L4330.9 570.852L4330.86 571.851C4450.98 576.122 4543.89 578.258 4609.57 578.258V577.258ZM4330.9 570.852L4329.93 570.609C4326.69 583.577 4326.68 596.293 4329.93 608.741L4330.9 608.488L4331.87 608.236C4328.71 596.126 4328.7 583.751 4331.87 571.094L4330.9 570.852ZM4330.9 608.488L4330.8 609.484C4391.9 615.353 4437.76 624.684 4468.45 637.439C4499.19 650.213 4514.36 666.259 4514.88 685.39L4515.88 685.363L4516.88 685.336C4516.33 664.962 4500.14 648.443 4469.22 635.592C4438.25 622.722 4392.15 613.368 4330.99 607.493L4330.9 608.488ZM4515.88 685.363L4514.88 685.396C4518.08 783.614 4520.75 931.749 4522.89 1129.81L4523.89 1129.8L4524.89 1129.79C4522.75 931.725 4520.08 783.571 4516.88 685.331L4515.88 685.363ZM4523.89 1129.8L4523.85 1128.8C4425.63 1132 4332.75 1133.6 4245.21 1133.6V1134.6V1135.6C4332.78 1135.6 4425.68 1134 4523.92 1130.8L4523.89 1129.8ZM4245.21 1134.6V1133.6C4098.94 1133.6 3992.98 1132.53 3927.34 1130.4L3927.3 1131.4L3927.27 1132.4C3992.95 1134.53 4098.94 1135.6 4245.21 1135.6V1134.6ZM3927.3 1131.4H3928.3C3928.3 952.033 3931.51 803.375 3937.91 685.417L3936.91 685.363L3935.92 685.309C3929.51 803.316 3926.3 952.014 3926.3 1131.4H3927.3ZM3936.91 685.363L3937.91 685.39C3938.17 675.662 3943.69 666.708 3954.82 658.543C3965.96 650.369 3982.62 643.068 4004.86 636.676C4049.33 623.894 4115.83 614.824 4204.44 609.486L4204.38 608.488L4204.31 607.49C4115.68 612.83 4048.99 621.91 4004.3 634.754C3981.97 641.174 3965.05 648.555 3953.64 656.93C3942.21 665.314 3936.19 674.778 3935.91 685.337L3936.91 685.363ZM4204.38 608.488L4205.33 608.789C4208.6 598.424 4208.58 585.69 4205.35 570.642L4204.38 570.852L4203.4 571.061C4206.58 585.909 4206.55 598.266 4203.42 608.187L4204.38 608.488ZM4204.38 570.852L4204.34 569.852C4064.48 574.123 3955.05 576.258 3876.05 576.258V577.258V578.258C3955.08 578.258 4064.53 576.122 4204.41 571.851L4204.38 570.852ZM3876.05 577.258V576.258C3810.94 576.258 3718.07 574.123 3597.42 569.852L3597.38 570.852L3597.35 571.851C3718 576.122 3810.91 578.258 3876.05 578.258V577.258ZM3597.38 570.852L3596.47 570.445C3592.07 580.353 3592.12 593.162 3596.42 608.754L3597.38 608.488L3598.35 608.222C3594.11 592.851 3594.16 580.569 3598.3 571.258L3597.38 570.852ZM3597.38 608.488L3597.29 609.484C3658.65 615.353 3704.71 624.685 3735.54 637.44C3766.41 650.214 3781.65 666.261 3782.16 685.39L3783.16 685.363L3784.16 685.336C3783.61 664.96 3767.35 648.442 3736.3 635.592C3705.2 622.722 3658.9 613.368 3597.48 607.493L3597.38 608.488ZM3783.16 685.363L3782.17 685.406C3787.5 810.843 3790.17 960.041 3790.17 1133H3791.17H3792.17C3792.17 960.022 3789.5 810.795 3784.16 685.321L3783.16 685.363ZM3791.17 1133H3790.17C3790.17 1302.22 3786.97 1470.64 3780.56 1638.25L3781.56 1638.29L3782.56 1638.33C3788.97 1470.69 3792.17 1302.24 3792.17 1133H3791.17ZM3781.56 1638.29L3780.56 1638.27C3780.05 1657.4 3764.81 1673.44 3733.93 1686.22C3703.11 1698.97 3657.05 1708.3 3595.69 1714.17L3595.78 1715.17L3595.88 1716.16C3657.3 1710.29 3703.6 1700.93 3734.7 1688.06C3765.75 1675.21 3782.01 1658.7 3782.56 1638.32L3781.56 1638.29ZM3595.78 1715.17L3594.89 1714.72C3590.45 1723.59 3590.52 1736.44 3594.81 1753.05L3595.78 1752.8L3596.75 1752.55C3592.5 1736.07 3592.57 1723.83 3596.68 1715.62L3595.78 1715.17ZM3595.78 1752.8L3595.82 1753.8C3686.56 1750.6 3779.44 1749 3874.45 1749V1748V1747C3779.42 1747 3686.51 1748.6 3595.75 1751.81L3595.78 1752.8ZM3874.45 1748V1749C3988.15 1749 4097.58 1750.6 4202.74 1753.8L4202.77 1752.8L4202.8 1751.81C4097.62 1748.6 3988.17 1747 3874.45 1747V1748ZM4202.77 1752.8L4203.67 1753.25C4208.1 1744.38 4208.03 1731.54 4203.74 1714.92L4202.77 1715.17L4201.81 1715.42C4206.06 1731.9 4205.98 1744.15 4201.88 1752.36L4202.77 1752.8ZM4202.77 1715.17L4202.83 1714.17C4114.23 1708.83 4047.72 1699.76 4003.25 1686.98C3981.02 1680.59 3964.36 1673.29 3953.22 1665.11C3942.09 1656.95 3936.57 1647.99 3936.31 1638.27L3935.31 1638.29L3934.31 1638.32C3934.59 1648.88 3940.61 1658.34 3952.04 1666.73C3963.45 1675.1 3980.36 1682.48 4002.7 1688.9C4047.39 1701.75 4114.07 1710.83 4202.71 1716.17L4202.77 1715.17ZM3935.31 1638.29L3936.31 1638.26C3930.97 1477.58 3928.3 1327.31 3928.3 1187.45H3927.3H3926.3C3926.3 1327.34 3928.97 1477.63 3934.31 1638.33L3935.31 1638.29ZM3927.3 1187.45L3927.32 1188.45C4058.65 1185.78 4164.61 1184.45 4245.21 1184.45V1183.45V1182.45C4164.59 1182.45 4058.62 1183.78 3927.28 1186.45L3927.3 1187.45ZM4245.21 1183.45V1184.45C4332.75 1184.45 4425.63 1186.32 4523.85 1190.05L4523.89 1189.05L4523.92 1188.06C4425.68 1184.32 4332.78 1182.45 4245.21 1182.45V1183.45ZM4523.89 1189.05L4522.89 1189.05C4521.82 1308.09 4519.15 1457.83 4514.88 1638.27L4515.88 1638.29L4516.88 1638.32C4521.15 1457.87 4523.82 1308.12 4524.89 1189.06L4523.89 1189.05ZM4483.05 1638.29L4484.05 1638.31C4488.32 1425.84 4490.99 1291.84 4492.05 1236.32L4491.05 1236.3L4490.05 1236.28C4488.99 1291.8 4486.32 1425.8 4482.05 1638.27L4483.05 1638.29ZM4491.05 1236.3L4491.08 1235.3C4386.44 1233.17 4304.48 1232.1 4245.21 1232.1V1233.1V1234.1C4304.46 1234.1 4386.4 1235.17 4491.03 1237.3L4491.05 1236.3ZM4245.21 1233.1V1232.1C4199.3 1232.1 4156.32 1232.36 4116.28 1232.9L4116.29 1233.9L4116.3 1234.9C4156.34 1234.36 4199.31 1234.1 4245.21 1234.1V1233.1ZM4116.29 1233.9L4116.28 1232.9C4076.76 1233.43 4054.89 1233.7 4050.62 1233.7V1234.7V1235.7C4054.9 1235.7 4076.8 1235.43 4116.3 1234.9L4116.29 1233.9ZM4050.62 1234.7H4049.62C4049.62 1358.03 4052.29 1492.04 4057.63 1636.73L4058.63 1636.69L4059.63 1636.65C4054.29 1491.99 4051.62 1358.01 4051.62 1234.7H4050.62ZM4058.63 1636.69H4057.63C4057.63 1640.13 4058.78 1643.52 4061 1646.86L4061.84 1646.3L4062.67 1645.75C4060.62 1642.67 4059.63 1639.66 4059.63 1636.69H4058.63ZM4061.84 1646.3L4061 1646.86C4063.29 1650.29 4067.24 1653.06 4072.68 1655.24L4073.05 1654.31L4073.42 1653.38C4068.18 1651.28 4064.65 1648.72 4062.67 1645.75L4061.84 1646.3ZM4073.05 1654.31L4072.68 1655.24C4077.99 1657.36 4083.3 1659.75 4088.62 1662.41L4089.06 1661.52L4089.51 1660.62C4084.15 1657.94 4078.78 1655.53 4073.42 1653.38L4073.05 1654.31ZM4089.06 1661.52L4088.72 1662.46C4094.64 1664.61 4101.88 1666.75 4110.44 1668.89L4110.68 1667.92L4110.93 1666.95C4102.41 1664.82 4095.23 1662.7 4089.4 1660.58L4089.06 1661.52ZM4110.68 1667.92L4110.45 1668.9C4119.53 1671.03 4127.54 1672.9 4134.48 1674.5L4134.71 1673.53L4134.93 1672.55C4127.99 1670.95 4119.99 1669.08 4110.91 1666.95L4110.68 1667.92ZM4134.71 1673.53L4134.48 1674.5C4141.46 1676.11 4150.29 1677.72 4160.98 1679.32L4161.13 1678.33L4161.28 1677.34C4150.62 1675.74 4141.84 1674.15 4134.93 1672.55L4134.71 1673.53ZM4161.13 1678.33L4160.99 1679.32C4172.2 1680.92 4181 1682.26 4187.39 1683.32L4187.56 1682.34L4187.72 1681.35C4181.31 1680.28 4172.49 1678.94 4161.27 1677.34L4161.13 1678.33ZM4187.56 1682.34L4187.41 1683.32C4194.37 1684.4 4203.47 1685.47 4214.69 1686.53L4214.79 1685.54L4214.88 1684.54C4203.68 1683.48 4194.62 1682.41 4187.71 1681.35L4187.56 1682.34ZM4214.79 1685.54L4214.69 1686.53C4226.45 1687.6 4234.38 1688.67 4238.57 1689.71L4238.81 1688.74L4239.05 1687.77C4234.7 1686.68 4226.61 1685.61 4214.88 1684.54L4214.79 1685.54ZM4238.81 1688.74L4237.85 1689.02C4246.32 1718.68 4244.75 1751.31 4233.05 1786.93L4234 1787.24L4234.95 1787.55C4246.75 1751.63 4248.38 1718.59 4239.77 1688.47L4238.81 1688.74ZM4234 1787.24L4234.03 1786.24C4037.04 1781.97 3917.18 1779.83 3874.45 1779.83V1780.83V1781.83C3917.15 1781.83 4036.98 1783.97 4233.98 1788.24L4234 1787.24ZM3874.45 1780.83V1779.83C3846.14 1779.83 3745.76 1781.97 3573.33 1786.24L3573.36 1787.24L3573.38 1788.24C3745.83 1783.97 3846.17 1781.83 3874.45 1781.83V1780.83ZM3573.36 1787.24L3574.3 1786.9C3561.03 1750.26 3561.04 1716.09 3574.28 1684.32L3573.36 1683.94L3572.44 1683.55C3558.98 1715.85 3559 1750.54 3572.42 1787.58L3573.36 1787.24ZM3573.36 1683.94L3573.46 1684.93C3631.4 1679.06 3675.04 1672.18 3704.35 1664.28C3718.99 1660.34 3730.12 1656.12 3737.68 1651.61C3745.2 1647.13 3749.43 1642.2 3749.73 1636.75L3748.73 1636.69L3747.73 1636.64C3747.49 1641.06 3744.02 1645.5 3736.66 1649.9C3729.33 1654.26 3718.41 1658.42 3703.83 1662.35C3674.68 1670.2 3631.17 1677.07 3573.26 1682.94L3573.36 1683.94ZM3748.73 1636.69L3749.73 1636.73C3756.14 1469.09 3759.34 1301.18 3759.34 1133H3758.34H3757.34C3757.34 1301.15 3754.14 1469.04 3747.73 1636.65L3748.73 1636.69ZM3758.34 1133H3759.34C3759.34 961.09 3756.67 812.396 3751.33 686.922L3750.33 686.965L3749.33 687.007C3754.67 812.445 3757.34 961.108 3757.34 1133H3758.34ZM3750.33 686.965L3751.33 686.911C3751.04 681.444 3746.72 676.516 3739.08 672.038C3731.39 667.533 3720.06 663.318 3705.14 659.372C3675.3 651.477 3630.86 644.597 3571.86 638.724L3571.76 639.719L3571.66 640.714C3630.64 646.585 3674.95 653.452 3704.63 661.306C3719.48 665.234 3730.61 669.394 3738.06 673.764C3745.57 678.161 3749.1 682.609 3749.33 687.019L3750.33 686.965ZM3571.76 639.719L3572.72 639.462C3563.7 605.487 3564.76 571.249 3575.91 536.725L3574.96 536.418L3574.01 536.111C3562.74 570.988 3561.66 605.617 3570.79 639.975L3571.76 639.719ZM3574.96 536.418V537.418C3621.92 537.418 3685.44 538.752 3765.51 541.421L3765.55 540.422L3765.58 539.422C3685.5 536.753 3621.96 535.418 3574.96 535.418V536.418ZM3765.55 540.422L3765.51 541.421C3846.12 544.091 3902.2 545.426 3933.71 545.426V544.426V543.426C3902.23 543.426 3846.19 542.092 3765.58 539.422L3765.55 540.422ZM3933.71 544.426V545.426C3956.68 545.426 4000.99 544.892 4066.66 543.824L4066.64 542.824L4066.62 541.824C4000.96 542.892 3956.66 543.426 3933.71 543.426V544.426ZM4066.64 542.824L4066.66 543.824C4132.32 542.756 4189.17 542.223 4237.21 542.223V541.223V540.223C4189.15 540.223 4132.29 540.757 4066.62 541.824L4066.64 542.824ZM4237.21 541.223L4236.25 541.524C4245.8 571.757 4246.34 604.401 4237.84 639.483L4238.81 639.719L4239.78 639.954C4248.36 604.567 4247.83 571.548 4238.16 540.922L4237.21 541.223ZM4238.81 639.719L4238.71 638.724C4179.7 644.597 4135.26 651.477 4105.42 659.372C4090.51 663.318 4079.18 667.533 4071.49 672.038C4063.85 676.516 4059.53 681.444 4059.24 686.911L4060.23 686.965L4061.23 687.019C4061.47 682.609 4065 678.161 4072.5 673.764C4079.96 669.394 4091.09 665.234 4105.93 661.306C4135.62 653.452 4179.93 646.585 4238.91 640.714L4238.81 639.719ZM4060.23 686.965L4059.24 686.921C4052.83 834.278 4049.62 972.027 4049.62 1100.17H4050.62H4051.62C4051.62 972.059 4054.83 834.34 4061.23 687.008L4060.23 686.965ZM4050.62 1100.17L4050.56 1101.17C4101.85 1104.37 4166.75 1104.91 4245.24 1102.77L4245.21 1101.77L4245.19 1100.77C4166.73 1102.9 4101.9 1102.37 4050.69 1099.17L4050.62 1100.17ZM4245.21 1101.77L4245.23 1102.77L4491.07 1099.57L4491.05 1098.57L4491.04 1097.57L4245.2 1100.77L4245.21 1101.77ZM4491.05 1098.57L4492.05 1098.55C4489.92 924.515 4487.25 787.307 4484.05 686.933L4483.05 686.965L4482.05 686.997C4485.25 787.352 4487.92 924.545 4490.05 1098.58L4491.05 1098.57ZM4483.05 686.965L4484.05 686.911C4483.75 681.444 4479.43 676.516 4471.79 672.038C4464.1 667.533 4452.77 663.318 4437.86 659.372C4408.02 651.477 4363.58 644.597 4304.57 638.724L4304.47 639.719L4304.37 640.714C4363.35 646.585 4407.66 653.452 4437.35 661.306C4452.2 665.234 4463.32 669.394 4470.78 673.764C4478.29 678.161 4481.81 682.609 4482.05 687.019L4483.05 686.965ZM4304.47 639.719L4305.44 639.47C4295.88 602.268 4296.95 568.046 4308.61 536.767L4307.68 536.418L4306.74 536.069C4294.91 567.785 4293.85 602.43 4303.5 639.968L4304.47 639.719ZM4307.68 536.418L4307.61 537.416C4385.05 542.756 4489.98 545.426 4622.38 545.426V544.426V543.426C4490 543.426 4385.12 540.757 4307.74 535.42L4307.68 536.418ZM4622.38 544.426V545.426C4647.48 545.426 4698.47 544.892 4775.35 543.824L4775.33 542.824L4775.32 541.824C4698.44 542.892 4647.47 543.426 4622.38 543.426V544.426ZM4775.33 542.824L4775.35 543.824C4852.75 542.756 4917.61 542.223 4969.92 542.223V541.223V540.223C4917.6 540.223 4852.73 540.757 4775.32 541.824L4775.33 542.824ZM4969.92 541.223L4968.97 541.539C4979.05 571.768 4979.86 604.407 4971.35 639.483L4972.32 639.719L4973.3 639.954C4981.88 604.562 4981.08 571.537 4970.87 540.906L4969.92 541.223ZM4972.32 639.719L4972.23 638.724C4912.95 644.597 4868.31 651.477 4838.34 659.372C4823.36 663.318 4811.98 667.532 4804.26 672.037C4796.58 676.514 4792.25 681.442 4791.95 686.911L4792.95 686.965L4793.95 687.019C4794.19 682.611 4797.72 678.163 4805.26 673.765C4812.76 669.395 4823.93 665.235 4838.85 661.306C4868.67 653.452 4913.18 646.585 4972.42 640.714L4972.32 639.719ZM4792.95 686.965L4791.95 686.925C4786.61 819.338 4783.94 977.907 4783.94 1162.63H4784.94H4785.94C4785.94 977.924 4788.61 819.383 4793.95 687.005L4792.95 686.965ZM4784.94 1162.63H4783.94C4783.94 1346.28 4786.61 1504.32 4791.95 1636.73L4792.95 1636.69L4793.95 1636.65C4788.61 1504.27 4785.94 1346.27 4785.94 1162.63H4784.94ZM4792.95 1636.69L4791.95 1636.75C4792.25 1642.21 4796.58 1647.14 4804.26 1651.62C4811.98 1656.12 4823.36 1660.34 4838.34 1664.28C4868.31 1672.18 4912.95 1679.06 4972.23 1684.93L4972.32 1683.94L4972.42 1682.94C4913.18 1677.07 4868.67 1670.2 4838.85 1662.35C4823.93 1658.42 4812.76 1654.26 4805.26 1649.89C4797.72 1645.49 4794.19 1641.04 4793.95 1636.64L4792.95 1636.69ZM4972.32 1683.94L4971.35 1684.18C4979.85 1718.16 4978.52 1752.4 4967.37 1786.93L4968.32 1787.24L4969.27 1787.55C4980.54 1752.67 4981.88 1718.05 4973.29 1683.69L4972.32 1683.94ZM4968.32 1787.24L4968.34 1786.24C4795.92 1781.97 4695.54 1779.83 4667.23 1779.83V1780.83V1781.83C4695.5 1781.83 4795.85 1783.97 4968.3 1788.24L4968.32 1787.24ZM4667.23 1780.83V1779.83C4624.5 1779.83 4504.64 1781.97 4307.65 1786.24L4307.68 1787.24L4307.7 1788.24C4504.69 1783.97 4624.53 1781.83 4667.23 1781.83V1780.83ZM4307.68 1787.24L4308.62 1786.91C4295.88 1750.27 4295.89 1716.09 4308.6 1684.31L4307.68 1683.94L4306.75 1683.57C4293.83 1715.85 4293.85 1750.53 4306.73 1787.57L4307.68 1787.24ZM4307.68 1683.94L4307.78 1684.93C4366.25 1679.06 4410.15 1672.31 4439.46 1664.69C4454.1 1660.87 4465.16 1656.83 4472.59 1652.52C4479.95 1648.25 4484.05 1643.54 4484.05 1638.29H4483.05H4482.05C4482.05 1642.39 4478.83 1646.59 4471.58 1650.79C4464.39 1654.96 4453.54 1658.95 4438.95 1662.75C4409.8 1670.34 4366.02 1677.07 4307.58 1682.94L4307.68 1683.94Z" fill="black" mask="url(#path-14-outside-1_4013_3)"/>
</svg>
